<svg class="icon" viewBox="0 0 1024 1024" xmlns="http://www.w3.org/2000/svg" width="200" height="200"><defs><style/></defs><path d="M993.28 0L0 993.28V1024L1024 0z" fill="#318BD8"/><path d="M0 0v993.28L993.28 0H0zm371.799 130.765l62.008-62.131c9.969-9.99 16.17-17.086 21.479-24.192l15.539 15.503c-7.537 5.77-15.288 12.651-24.151 21.53l-62.003 62.13c-8.858 8.879-15.944 16.866-21.699 24.408l-15.529-15.504c6.861-5.1 14.398-11.76 24.356-21.744zM327.05 165.39c.01 3.103.23 4.214.901 8.863 4.91 31.473 4.5 62.956-1.008 97.321-8.208-1.541-13.307-1.756-20.839-.865 4.409-20.398 5.95-34.811 5.71-52.767-.021-22.17-2.249-35.471-6.923-47.217l22.16-5.335zM165.36 319.86c1.332 3.99 1.782 4.88 5.561 13.518 3.548 8.422 6.44 15.288 8.218 20.162l58.02-58.137c10.634-10.655 17.049-17.972 21.258-23.962l14.868 14.838c-7.091 5.775-13.737 11.986-23.04 21.31l-65.106 65.233c6.677 24.381 8.679 36.127 10.486 62.73-7.322-.215-11.75.676-19.727 3.79-.471-26.164-2.478-41.458-8.93-62.506-5.34-19.062-13.122-36.121-19.998-45.204l18.39-11.771zm-93.25 80.124c26.378 5.074 33.26 6.615 48.998 12.585l-5.96 19.292c-18.63-7.962-32.378-11.495-51.225-13.916l8.187-17.961zm206.802 189.998c-5.32 5.325-9.523 9.093-17.72 15.534-7.322-6.42-11.761-9.518-16.64-11.735 7.536-4.88 15.278-10.875 21.258-16.866 7.982-7.992 7.091-11.98-6.902-29.92-16.42-20.819-35.952-42.533-71.014-77.523l-27.904 27.96c28.856 32.784 38.18 44.304 49.94 62.25 15.324 23.7 24.438 48.742 28.237 76.897-9.754-1.761-13.967-1.982-21.944-1.086-4.47-36.357-15.58-60.282-44.432-95.283-18.432-22.815-33.74-39.87-65.694-73.088l-3.984 3.994c-9.968 9.984-15.058 15.534-19.712 21.97l-14.868-14.838c6.646-4.885 13.511-10.88 22.81-20.198l45.398-45.492c8.203-8.212 13.517-13.977 18.832-21.079l14.418 14.398c-5.98 4.659-11.515 9.764-20.818 19.087l-28.79 28.846c4.219 4.209 7.327 7.752 9.318 9.744 4.66 4.649 11.1 11.52 19.528 20.817l25.472-25.518c9.518-9.543 12.18-12.206 15.719-16.64 4.884 5.755 6.88 7.752 19.527 20.818 33.736 34.55 51.041 54.042 67.472 75.75 19.312 25.918 19.763 33.9 2.493 51.2zm34.642-163.415c-22.405-9.954-37.484-19.252-67.66-41.83-3.314 5.544-3.314 5.544-13.507 21.519l98.529 98.33c.44-1.332.88-2.218.88-2.668.226-.22 3.103-7.982 8.853-23.506 3.978-11.53 5.31-15.079 9.723-27.5l13.097 13.067c-5.97 19.732-5.97 19.732-21.002 59.653a818.523 818.523 0 0 0-4.65 12.64l-18.62-5.749c.43-6.65-.677-9.528-7.558-17.725l-81.208-81.05c-14.649-14.617-14.649-14.617-24.418-22.144l2.883-2.882c9.523-9.544 25.242-35.052 36.076-58.343 7.966-17.3 11.499-28.385 12.38-38.584l23.06.42c-.67 1.556-.89 2.222-1.331 3.548-7.962 23.06-14.817 38.37-24.11 55.67 21.96 17.05 23.07 17.71 46.812 30.77 4.408-18.626 4.833-38.133 1.49-60.082l20.613-1.572c.03 30.157-1.065 46.781-5.028 69.396 10.204 4.424 23.952 8.842 34.816 11.715 21.73 5.299 38.805 6.395 65.178 3.927.23 8.648 1.346 13.742 4.68 23.275-43.9 1.362-72.28-3.927-109.978-20.295zm173.788-36.992c-5.11-7.307-13.768-16.83-25.528-28.565l-49.71-49.613c-9.539-9.523-15.75-16.169-25.959-27.243 2.238 18.176 2.028 30.812-.394 50.104-8.207-2.877-14.187-3.978-21.284-3.973 5.514-29.046 5.709-57.2 1.02-88.453-1.783-11.97-4.67-21.499-8.449-29.701l21.499-6c.67 5.98 1.116 7.75 2.888 16.178 2.892 12.191 4.019 21.28 5.14 34.801l89.651 89.477c11.981 11.955 21.3 20.373 28.621 25.462l-17.495 17.526zm73.068-82.535c-6.882-5.54-11.761-8.637-18.857-11.735 14.622-11.1 24.586-19.312 33.884-28.636 7.531-7.547 8.422-10.204 3.978-14.633l-96.087-95.897-50.493 50.595c-10.41 10.43-18.822 19.748-23.25 25.964l-15.54-15.503c6.211-4.445 15.289-12.652 25.923-23.302l77.737-77.89c11.295-11.315 18.826-19.748 23.03-25.738l15.534 15.503c-6.651 4.884-15.289 12.651-25.472 22.856l-12.631 12.651 97.198 97.004c14.198 14.177 12.882 23.04-7.056 43.018a425.42 425.42 0 0 1-27.898 25.743z" fill="#3697EA"/></svg>