<svg class="icon" viewBox="0 0 1024 1024" xmlns="http://www.w3.org/2000/svg" width="200" height="200"><defs><style/></defs><path d="M489.498 815.5c-76.672 36.532-164.698 59.265-260.007 36.865-95.36-22.567-162.995-83.507-151.385-196.007C89.69 543.68 210.099 504.922 309.043 504.922c98.983 0 286.733 64.166 286.733 64.166s15.731-35.43 31.155-75.738c15.373-40.486 19.597-72.87 19.597-72.87H246.656v-40.102h194.33V303.59l-242.24 1.87v-50.625h242.24v-115.02h127.232v115.02h259.558v50.624l-259.558 1.69v71.398l214.259 1.83s-3.866 40.103-31.002 112.973c-27.033 72.858-52.633 110.093-52.633 110.093L1024 710.054V204.75C1024 91.635 932.378 0 819.226 0H204.774C91.635 0 0 91.635 0 204.749V819.25C0 932.365 91.635 1024 204.774 1024h614.452c94.272 0 173.376-63.731 197.273-150.502L641.446 695.654s-75.225 83.15-151.948 119.847z" fill="#26A9F9"/><path d="M267.469 566.669c-119.424 7.705-148.621 60.109-148.621 108.531 0 48.294 29.542 115.43 169.715 115.43 140.314 0 259.392-141.324 259.392-141.324S386.701 559.13 267.47 566.669z" fill="#26A9F9"/></svg>