<svg class="icon" viewBox="0 0 1024 1024" xmlns="http://www.w3.org/2000/svg" width="200" height="200"><defs><style/></defs><path d="M378.88 483.84H81.664a44.672 44.672 0 0 1-44.608-44.608V142.016c0-24.576 20.032-44.608 44.608-44.608H378.88c24.576 0 44.608 20.032 44.608 44.608v297.216a44.672 44.672 0 0 1-44.608 44.608zM81.664 138.56l-3.392 300.672 300.608 3.456a3.442 3.442 0 0 0 3.456-3.456V142.016L81.664 138.56zM378.88 987.776H81.664a44.672 44.672 0 0 1-44.608-44.544V645.888c0-24.576 20.032-44.544 44.608-44.544H378.88c24.576 0 44.608 20.032 44.608 44.544v297.344a44.608 44.608 0 0 1-44.608 44.544zM81.664 642.496l-3.456 300.672 300.672 3.456a3.442 3.442 0 0 0 3.456-3.456V645.824l-300.672-3.328zm650.432-97.152a43.84 43.84 0 0 1-31.488-13.056l-210.24-210.176a44.224 44.224 0 0 1 .064-62.976L700.672 48.96a45.44 45.44 0 0 1 62.976 0l210.24 210.24a44.288 44.288 0 0 1 12.992 31.552c0 11.904-4.608 23.04-12.992 31.488l-210.24 210.176a44.8 44.8 0 0 1-31.552 12.928zm2.432-467.392l-215.04 210.176 212.608 216.064c.64 0 1.472-.128 2.368-1.024l210.24-210.176-210.176-215.04zm146.24 909.824h-297.28a44.608 44.608 0 0 1-44.608-44.544V645.888c0-24.576 19.968-44.544 44.608-44.544h297.28c24.64 0 44.608 20.032 44.608 44.544v297.344a44.672 44.672 0 0 1-44.608 44.544zm-297.28-345.28l-3.52 300.672 300.736 3.456a3.456 3.456 0 0 0 3.392-3.456V645.824l-300.608-3.328z" fill="#0596E7"/></svg>