<svg class="icon" viewBox="0 0 1024 1024" xmlns="http://www.w3.org/2000/svg" width="200" height="200"><defs><style/></defs><path d="M993.28 0L0 993.28V1024L1024 0z" fill="#E58E00"/><path d="M322.38 380.006c-4.428 4.885-7.31 7.767-11.96 12.427-15.503 15.534-20.372 19.527-26.803 21.975-6.645 2.667-11.305 1.121-17.96-5.525l-36.834-36.767-20.818 20.86c17.976 20.162 22.636 26.582 28.416 39.434 7.327 15.733 9.334 28.81 8.028 50.98-8.642-.65-11.75-.21-20.167 2.017 3.307-21.51 1.74-34.586-6.923-50.32-5.11-9.523-7.552-12.846-22.195-29.24l-26.798 26.85 75.894 75.745 103.209-103.404-25.088-25.032zm-42.608 163.876l-23.516-23.475 103.22-103.393 23.515 23.475zm-90.895-211.635l27.965 27.904-20.598 20.634-27.955-27.904z" fill="#F49A00"/><path d="M297.554 381.804c4.209-4.22 4.209-4.22 13.066-13.538l-39.055-38.978-29.901 29.957 33.285 33.223c5.33 5.315 7.987 3.984 22.605-10.664zm202.793-52.742l-44.38-44.298 95.667-95.856 44.385 44.288z" fill="#F49A00"/><path d="M0 0v993.28L993.28 0H0zm51.528 431.252c23.27-4.234 37.012-5.58 65.387-5.16l1.352 20.398c-27.935-1.746-42.127-.85-66.058 4.05l-.681-19.288zm45.522 83.093l-2.233-19.062c25.928-6.01 39.01-8.018 66.494-9.38l3.563 20.393c-28.815.031-42.998 1.818-67.824 8.049zm119.157 113.613c.425-21.284-10.92-58.297-30.023-98.627l19.947-1.792c11.55 24.817 19.328 44.54 25.78 66.478 2.001 7.317 3.333 11.746 5.56 22.385 1.116 4.209 1.561 5.1 2.893 10.86l-24.157.696zM408.48 465.94l-13.092-13.066-103.21 103.404 13.093 13.066-14.618 14.643c-6.436-8.197-13.977-16.61-23.741-26.352L164.163 455.09c-11.981-11.96-16.866-16.389-22.851-21.038 5.76-4.439 12.626-10.88 22.815-21.084l19.266-19.308-27.955-27.904-27.018 27.07a274.893 274.893 0 0 0-20.373 22.63L92.96 400.394c7.531-5.325 12.626-9.984 23.04-20.413l103.209-103.409c9.077-9.098 14.837-15.754 20.592-23.301l15.089 15.063a276.67 276.67 0 0 0-22.815 20.639l-30.34 30.402 27.954 27.904 22.815-22.855c9.523-9.539 16.39-16.86 20.157-21.965 3.994 4.874 9.094 10.409 21.745 23.035l100.96 100.766c11.316 11.295 19.088 18.166 27.735 25.027L408.48 465.94zm31.887-55.47c-9.354-44.774-34.662-80.22-116.096-161.5-13.537-13.511-20.413-19.932-27.735-25.912a341.56 341.56 0 0 0 24.366-22.19l61.123-61.246c-11.976-3.092-20.404-4.858-31.708-6.4l5.304-18.626c9.979 1.541 17.96 3.307 41.907 9.492l52.49-52.592c11.96-11.981 18.381-19.303 23.255-25.959l15.089 15.058c-6.646 4.885-13.512 11.315-25.697 23.521L325.57 221.476c98.749 99.005 123.832 133.34 137.405 187.197-9.313-.435-11.53-.43-22.61 1.797zm168.325-164.654l-95.677 95.862 10.65 10.63-15.059 15.088c-5.55-7.306-12.651-15.283-25.297-27.91l-35.282-35.215c-8.433-8.417-13.758-13.286-20.189-18.38 6.2-4.885 11.07-9.324 19.487-17.757l31.007-31.063-57.912-57.804c-11.316-11.3-15.31-14.838-20.86-18.607l15.95-15.979c3.553 5.32 7.106 9.303 18.867 21.048l10.204 10.184 50.493-50.59c10.41-10.43 16.61-17.527 20.373-23.077l15.309 15.278c-6.2 4.44-13.292 10.655-22.59 19.974l-50.939 51.036 34.837 34.77 42.747-42.83c8.637-8.652 13.071-13.531 17.94-19.742 5.33 6.646 10.43 12.18 19.308 21.043l34.17 34.105c12.872 12.846 21.08 20.152 28.181 25.467l-15.063 15.088-10.655-10.619z" fill="#F49A00"/></svg>