<svg class="icon" viewBox="0 0 1024 1024" xmlns="http://www.w3.org/2000/svg" width="200" height="200"><defs><style/></defs><path d="M674.88 1010.624l-5.952-.128-1.28-19.392-3.712 18.816a141.952 141.952 0 0 1-111.488-104.96l-76.096-192.832-74.432 74.496-1.088 133.76a33.28 33.28 0 0 1-.64 4.992c-5.568 25.472-22.4 55.36-53.184 64.64-29.44 8.768-62.336-3.776-95.872-37.12L71.552 773.184c-33.728-33.792-46.272-66.112-37.248-96 11.968-39.936 55.424-51.136 64-52.928.576-.064 4.992-.64 5.632-.64l133.76-1.152 74.432-74.432-194.816-76.8a139.392 139.392 0 0 1-84.864-63.68c-15.36-25.28-18.24-47.68-18.368-48.64-3.584-41.216 11.712-65.856 25.216-79.552 27.136-27.456 65.344-31.552 85.696-31.552l456.512 11.968L786.944 54.4a27.008 27.008 0 0 1 2.432-2.944c48.896-48.896 134.272-48.832 183.232 0 50.432 50.432 50.56 132.672.32 183.296L764.544 443.008l11.904 449.152c1.152 11.648 2.816 56.32-26.432 88.128-18.176 20.096-43.584 30.336-75.136 30.336zm-191.424-352a19.264 19.264 0 0 1 17.856 12.16l87.616 222.208c8 29.76 24.32 51.904 47.68 66.048 10.624 6.464 23.04 11.2 34.048 13.12l4.16.064c20.544 0 35.968-5.824 46.848-17.856 19.072-20.672 17.088-53.568 16.448-59.904l-12.096-458.56a19.328 19.328 0 0 1 5.632-14.208l214.144-214.08a91.584 91.584 0 0 0-.256-129.024c-33.792-33.728-92.288-34.56-126.72-2.176a26.368 26.368 0 0 1-2.112 2.56L602.688 292.928a21.312 21.312 0 0 1-14.336 5.632c-.896 0-1.728-.128-2.624-.256l-460.672-12.096c-11.584 0-40.384 1.92-58.368 20.096-11.392 11.52-16.256 27.584-14.528 47.616.064.448 2.24 15.808 13.184 33.792 13.952 23.36 36.096 39.616 64 47.104l224.128 88.192a19.49 19.49 0 0 1 11.776 14.016A19.008 19.008 0 0 1 360 554.496L259.328 655.168a18.944 18.944 0 0 1-13.376 5.632l-141.632 1.216c.896 0-27.2 6.272-33.216 26.24-5.76 19.136 11.84 41.984 27.648 57.792l179.584 179.648c22.528 22.528 42.176 32.192 57.728 27.584 19.52-5.888 25.92-32.512 26.56-35.52l1.024-139.328a19.2 19.2 0 0 1 5.568-13.376l100.672-100.8a19.2 19.2 0 0 1 13.568-5.632z" fill="#0596E7"/></svg>