<svg xmlns="http://www.w3.org/2000/svg" width="235" height="54" viewBox="0 0 235 54"><path fill-rule="evenodd" clip-rule="evenodd" fill="#408ECD" d="M118.658 53.57c-32.458 0-64.915-.033-97.372.056-3.034.009-4.848-.717-6.458-3.579-2.955-5.25-6.542-10.152-9.975-15.125-3.405-4.933-3.156-9.726-.13-14.753 3.072-5.105 6.211-10.222 8.667-15.63C15.455-.009 19.128.623 22.73.425c1.305-.072 2.619.012 3.928.012 62.62.001 125.24.023 187.859-.062 3.26-.004 5.133.921 6.811 3.859 2.989 5.233 6.634 10.09 9.979 15.122 3.046 4.583 3.041 9.251.279 13.957-3.342 5.692-6.925 11.26-9.95 17.117-1.466 2.84-3.36 3.188-6.098 3.182-32.293-.065-64.587-.042-96.88-.042z"/></svg>