<svg class="icon" viewBox="0 0 1024 1024" xmlns="http://www.w3.org/2000/svg" width="200" height="200"><defs><style/></defs><path d="M454.4 980.032H104c-29.184 0-51.2-22.976-51.2-53.44V94.912c0-30.016 21.056-51.008 51.2-51.008h698.56c30.464 0 53.376 21.952 53.376 51.008V419.2a19.2 19.2 0 1 0 38.4 0V94.912c0-50.112-40.32-89.344-91.776-89.344H104c-51.072 0-89.536 38.464-89.536 89.344v831.68c0 51.52 39.296 91.84 89.536 91.84h350.4a19.2 19.2 0 1 0 0-38.4z" fill="#999"/><path d="M426.496 519.936a19.2 19.2 0 0 0-19.2-19.2H165.44a19.2 19.2 0 0 0 0 38.4h241.856a19.2 19.2 0 0 0 19.2-19.2zm178.112-194.56a19.2 19.2 0 0 0-19.2-19.2H165.44a19.2 19.2 0 0 0 0 38.4h420.032a19.2 19.2 0 0 0 19.136-19.2zM165.44 679.488a19.2 19.2 0 0 0 0 38.4h142.848a19.2 19.2 0 0 0 0-38.4H165.44zM748.16 479.68a263.04 263.04 0 0 0-69.824 9.408A262.208 262.208 0 0 0 486.72 741.12a261.696 261.696 0 0 0 261.44 261.44c144.128 0 261.376-117.248 261.376-261.44S892.288 479.68 748.16 479.68zm0 484.48a223.232 223.232 0 0 1-223.04-223.04 223.552 223.552 0 0 1 223.104-223.04c122.944 0 222.976 100.032 222.976 223.04S871.104 964.16 748.16 964.16z" fill="#999"/><path d="M840.064 749.184h-81.216v-132.48a19.2 19.2 0 1 0-38.4 0v151.68a19.2 19.2 0 0 0 19.2 19.2H840a19.2 19.2 0 0 0 .064-38.4z" fill="#999"/></svg>