<svg class="icon" viewBox="0 0 1024 1024" xmlns="http://www.w3.org/2000/svg" width="200" height="200"><defs><style/></defs><path d="M512 1024C229.683 1024 0 794.317 0 512S229.683 0 512 0s512 229.683 512 512-229.683 512-512 512zm0-990.959C247.91 33.041 33.041 247.911 33.041 512S247.911 990.959 512 990.959 990.959 776.089 990.959 512 776.089 33.041 512 33.041z" fill="#dbdbdb"/><path d="M823.023 336.213l-383.42 383.42a44.954 44.954 0 0 1-2.935 3.448c-10.957 10.888-28.229 11.298-38.673.819L199.782 525.687c-10.444-10.444-10.069-27.784.854-38.673 10.888-10.888 28.228-11.298 38.673-.819l179.78 179.78L785.92 299.18c11.093-11.094 28.399-11.776 38.639-1.536 10.24 10.206 9.591 27.477-1.536 38.57z" fill="#dbdbdb"/></svg>