<svg class="icon" viewBox="0 0 1024 1024" xmlns="http://www.w3.org/2000/svg" width="200" height="200"><defs><style/></defs><path d="M512 54.336c252.352 0 457.664 205.312 457.664 457.664 0 252.288-205.312 457.6-457.664 457.6S54.336 764.288 54.336 512a458.752 458.752 0 0 1 335.68-441.152A458.048 458.048 0 0 1 512 54.336m0-51.2c-46.016 0-91.712 6.208-135.68 18.368A510.08 510.08 0 0 0 3.136 512c0 280.64 228.288 508.8 508.864 508.8 280.64 0 508.864-228.288 508.864-508.8C1020.864 231.424 792.64 3.136 512 3.136z" fill="#FC9B16"/><path d="M677.568 243.2c-.896.768-1.536 1.6-2.304 2.56L553.152 367.936l-272.704-7.104c-12.352 0-35.52 2.496-52.032 19.2-8.32 8.32-17.728 23.36-15.488 49.088.384 2.368 2.624 15.104 11.072 29.248 11.712 19.52 29.952 33.024 51.392 38.592l114.624 45.248-42.624 42.688-79.488.448a24.768 24.768 0 0 0-4.352.768c-19.84 4.864-33.856 16.832-38.592 32.576-5.504 18.304 2.048 38.016 22.592 58.624l107.456 107.392c20.48 20.48 40.832 28.16 58.688 22.656 23.36-6.976 30.848-31.488 32.576-38.912l.512-4.032.576-79.36 42.688-42.688 44.736 113.216c6.016 22.656 19.52 41.024 39.104 52.928a80.896 80.896 0 0 0 31.68 11.2l3.968.128c19.008 0 34.368-6.336 45.76-18.624 18.816-20.48 16.64-49.28 16.064-53.632l-7.04-268.224 124.032-124.032a79.04 79.04 0 0 0 0-111.488c-29.632-29.696-81.024-29.76-110.784-.64zm92.736 93.952L642.176 465.216a12.736 12.736 0 0 0-3.52 10.688l7.168 273.344c.064.896 2.304 21.76-9.408 34.56-6.272 6.912-15.04 10.24-26.752 10.24l-3.136-.064c0-.128-9.088-1.344-19.392-7.488a63.168 63.168 0 0 1-28.032-38.976l-52.416-132.864a13.184 13.184 0 0 0-9.344-7.936c-.768-.128-1.664-.128-2.56-.128a12.8 12.8 0 0 0-9.088 3.776l-60.16 60.224a13.12 13.12 0 0 0-3.776 8.96l-.512 83.008c-.704 2.816-4.544 17.088-15.04 20.16-8.768 2.624-20.032-3.008-33.152-16.128L265.664 659.2c-9.152-9.28-19.392-22.528-16.128-33.28 2.88-9.664 15.104-13.76 18.56-14.912l84.736-.64a12.48 12.48 0 0 0 8.96-3.84l60.16-60.096c3.008-2.944 4.352-7.36 3.456-11.584s-3.84-7.744-7.872-9.344l-134.144-52.8a60.928 60.928 0 0 1-45.12-47.232c-.96-11.648 1.792-20.864 8.32-27.392 10.368-10.496 27.136-11.648 33.856-11.648l275.328 7.168a6.08 6.08 0 0 0 1.6.192 15.232 15.232 0 0 0 9.728-3.712l128-128a14.784 14.784 0 0 0 1.28-1.536 54.528 54.528 0 0 1 73.92 1.28 53.504 53.504 0 0 1 0 75.328z" fill="#FC9B16"/></svg>