<svg class="icon" viewBox="0 0 1024 1024" xmlns="http://www.w3.org/2000/svg" width="200" height="200"><defs><style/></defs><path d="M864.681 31.319h-64c-17.7 0-38.129 10.895-38.129 28.595s20.43 35.405 38.129 35.405h64c38.129 0 64 25.871 64 64V896c0 38.129-25.871 64-64 64H175.657c-38.129 0-80.338-25.871-80.338-64V159.319c0-38.129 25.871-64 64-64h80.338c17.705 0 24.51-17.705 24.51-35.405s-6.81-28.595-24.51-28.595h-80.338c-89.871 0-128 55.829-128 129.362v728.51c0 78.98 47.662 134.809 134.81 134.809H857.87c87.148 0 134.81-46.3 134.81-134.81V160.681c0-73.533-44.938-129.362-128-129.362zM239.657 320c0 17.7 14.976 32.681 32.68 32.681H753.02c17.705 0 32.68-14.981 32.68-32.681s-14.98-32.681-32.68-32.681H272.338c-17.7 0-32.681 14.981-32.681 32.681zm512 144.338h-479.32c-17.704 0-32.68 14.981-32.68 32.68 0 17.706 14.976 32.682 32.68 32.682H753.02c17.705 0 32.68-14.976 32.68-32.681-1.361-19.062-16.337-32.681-34.042-32.681zm0 192h-479.32c-17.704 0-32.68 14.981-32.68 32.68 0 17.706 14.976 32.682 32.68 32.682H753.02c17.705 0 32.68-14.976 32.68-32.681-1.361-19.062-16.337-32.681-34.042-32.681zM401.7 111.662h223.319c25.871 0 47.662-25.876 47.662-55.828C672.681 25.87 650.891 0 623.657 0H401.7c-27.233 0-49.024 25.871-49.024 55.828.005 29.958 21.79 55.834 49.024 55.834z" fill="#727171"/></svg>