<svg class="icon" viewBox="0 0 1024 1024" xmlns="http://www.w3.org/2000/svg" width="200" height="200"><defs><style/></defs><path d="M453.248 854.528H96.064c-29.952 0-52.544-23.616-52.544-54.976V245.376h764.544c31.232 0 54.848 22.528 54.848 52.288v114.368a19.2 19.2 0 0 0 38.4 0V297.728c0-50.88-40.96-90.688-93.248-90.688h-144.64v-76.864c0-50.88-40.896-90.752-93.12-90.752H96.064c-51.84 0-90.88 38.976-90.88 90.752v669.376c0 52.352 39.936 93.376 90.88 93.376h357.184a19.2 19.2 0 0 0 0-38.4zM43.52 130.176c0-30.784 21.568-52.352 52.544-52.352h474.24c31.168 0 54.72 22.528 54.72 52.352v76.864H43.52v-76.864z" fill="#999"/><path d="M462.592 405.312H137.024a19.2 19.2 0 0 0 0 38.4h325.504a19.2 19.2 0 0 0 .064-38.4zm290.176 47.168a268.864 268.864 0 0 0-70.976 9.536 266.752 266.752 0 0 0-195.136 256.576 266.432 266.432 0 0 0 266.176 266.112c146.688 0 266.048-119.36 266.048-266.112S899.456 452.48 752.768 452.48zm0 493.888a228.096 228.096 0 0 1-227.776-227.776 228.288 228.288 0 0 1 167.04-219.584A227.968 227.968 0 0 1 980.48 718.592a228.096 228.096 0 0 1-227.712 227.776z" fill="#999"/><path d="M846.4 727.232h-83.072V591.744a19.2 19.2 0 1 0-38.4 0v154.624a19.2 19.2 0 0 0 19.2 19.264H846.4a19.2 19.2 0 0 0 0-38.4z" fill="#999"/></svg>