<svg class="icon" viewBox="0 0 1433 1024" xmlns="http://www.w3.org/2000/svg" width="279.883" height="200"><defs><style/></defs><path d="M1277.542 0H155.976C69.96 0 0 69.51 0 155.034v713.932C0 954.491 69.96 1024 155.976 1024h1121.566c86.057 0 156.058-69.51 156.058-155.034V155.034C1433.6 69.55 1363.6 0 1277.542 0zM1378.1 883.917c0 42.23-34.57 76.595-77.005 76.595H132.383a76.882 76.882 0 0 1-76.923-76.595V140.083c0-42.189 34.57-76.595 76.923-76.595h1168.67c42.435 0 77.005 34.406 77.005 76.595v743.834z" fill="#666"/><path d="M1201.766 258.499H882.074c-15.77 0-28.55 14.622-28.55 32.768s12.821 32.768 28.55 32.768h319.692c15.77 0 28.55-14.623 28.55-32.768s-12.78-32.768-28.55-32.768zm0 207.872H882.074c-15.77 0-28.55 14.663-28.55 32.809s12.821 32.768 28.55 32.768h319.692c15.77 0 28.55-14.623 28.55-32.768s-12.78-32.81-28.55-32.81zm-.45 200.09h-268.82c-15.73 0-28.427 14.663-28.427 32.767 0 18.104 12.739 32.768 28.426 32.768h268.82c15.689 0 28.427-14.623 28.427-32.768 0-18.104-12.738-32.768-28.426-32.768zm-437.699 95.272a315.965 315.965 0 0 0-171.13-194.15 203.366 203.366 0 0 0 74.26-157c0-112.599-92.242-204.227-205.578-204.227-113.46 0-205.66 91.628-205.66 204.227 0 63.037 28.958 119.521 74.3 157a315.802 315.802 0 0 0-171.13 194.15 39.24 39.24 0 0 0 26.05 49.193c21.013 6.349 24.454-12.042 30.925-32.768C246.99 678.175 356.68 586.957 461.17 586.957c104.407 0 214.712 96.338 246.005 196.321 5.284 16.835 1.762 29.41 18.596 29.41a39.28 39.28 0 0 0 37.847-50.955zM461.21 555.008c-80.2 0-145.49-64.799-145.49-144.425s65.29-144.425 145.49-144.425 145.408 64.799 145.408 144.425-65.209 144.425-145.408 144.425z" fill="#666"/></svg>