<svg class="icon" viewBox="0 0 1024 1024" xmlns="http://www.w3.org/2000/svg" width="200" height="200"><defs><style/></defs><path d="M926.656 248.512V131.648a19.2 19.2 0 0 0-27.264-17.472c-46.336 21.376-116.032 34.688-181.824 34.688-22.144 0-42.688-1.472-59.008-3.904-46.976-13.12-85.76-38.208-126.72-64.832l-22.656-14.656C468.992 40 422.016 25.984 369.536 23.872c-71.68-2.944-184.256 13.12-254.656 65.088-8.832 3.392-19.328 11.648-17.536 32.768l-.064 459.904.128 1.344-.384 398.272a19.2 19.2 0 0 0 38.336 0l.32-370.816c3.84-2.816 7.488-5.76 11.2-8.704 6.848-5.44 13.632-10.944 21.312-15.104 45.568-24.128 103.488-37.44 163.2-37.44 76.224 0 147.904 22.08 196.608 60.544 50.368 39.808 131.264 63.616 216.448 63.616 54.528 0 106.304-10.048 145.856-28.224 11.968-5.44 36.736-16.768 36.608-49.536-.32-115.52-.256-230.912-.256-347.072zM874.368 610.24c-34.688 15.936-80.832 24.704-129.856 24.704-76.8 0-148.864-20.672-192.64-55.296-56.192-44.48-134.528-68.928-220.416-68.928-65.856 0-130.24 14.912-181.312 42.048a144.448 144.448 0 0 0-14.4 9.152V121.344C193.344 77.44 296.384 59.2 368 62.272c46.208 1.856 85.632 13.504 120.576 35.648l22.4 14.464c41.6 27.008 84.608 54.912 139.52 70.08 71.488 11.264 169.344 1.728 237.824-22.336l-.064 88.384c-.064 116.224-.128 231.744.384 347.2 0 5.632 0 8.064-14.272 14.528z" fill="#0596E7"/></svg>