<svg xmlns="http://www.w3.org/2000/svg" width="24.723" height="30" viewBox="0 0 24.723 30"><g fill="#999"><path d="M12.365 24.348h-.005a.877.877 0 0 1-.672-.32c-.208-.252-5.104-6.219-7.19-9.658a9.307 9.307 0 0 1-1.472-5.031c0-2.494.973-4.839 2.734-6.603A9.28 9.28 0 0 1 12.365 0c2.493 0 4.839.971 6.602 2.734a9.275 9.275 0 0 1 2.735 6.603 9.34 9.34 0 0 1-1.148 4.487c-.483 1.099-1.894 3.146-4.191 6.09-1.709 2.188-3.312 4.102-3.326 4.119a.882.882 0 0 1-.672.315zm0-22.6c-4.185 0-7.589 3.404-7.589 7.589 0 1.458.414 2.875 1.199 4.095l.012.021c1.574 2.598 4.949 6.857 6.386 8.642 2.059-2.504 5.86-7.296 6.591-8.999.012-.028.023-.055.04-.081a7.593 7.593 0 0 0 .949-3.677c0-4.186-3.404-7.59-7.588-7.59zm-.023 11.815c-2.33 0-4.227-1.896-4.227-4.227s1.896-4.228 4.227-4.228 4.227 1.896 4.227 4.228a4.232 4.232 0 0 1-4.227 4.227zm0-6.704a2.48 2.48 0 1 0 2.479 2.478 2.48 2.48 0 0 0-2.479-2.478z"/><path d="M12.361 30c-3.209 0-6.239-.632-8.531-1.777C1.359 26.987 0 25.281 0 23.418c0-1.777 1.252-3.427 3.521-4.646a.804.804 0 0 1 .76 1.414c-1.725.929-2.676 2.074-2.676 3.232 0 1.205 1.072 2.434 2.941 3.368 2.074 1.037 4.85 1.608 7.813 1.608 2.965 0 5.74-.571 7.814-1.608 1.869-.935 2.941-2.163 2.941-3.368 0-1.156-.947-2.303-2.671-3.229a.8.8 0 0 1-.325-1.086.8.8 0 0 1 1.086-.328c2.268 1.22 3.516 2.867 3.516 4.643 0 1.863-1.359 3.569-3.829 4.805C18.602 29.368 15.57 30 12.361 30z"/><path d="M10.156 26.958c-2.979 0-5.502-1.052-6.28-2.616a.803.803 0 0 1 1.436-.716c.416.837 2.256 1.728 4.844 1.728a.803.803 0 1 1 0 1.604z"/></g></svg>