<svg class="icon" viewBox="0 0 1024 1024" xmlns="http://www.w3.org/2000/svg" width="200" height="200"><defs><style/></defs><path d="M544.256 920.448h-394.56c-29.952 0-52.48-23.168-52.48-53.888V367.168a31.36 31.36 0 0 1 11.84-24.512L450.56 66.688a81.28 81.28 0 0 1 113.408 1.28l340.544 275.136a29.952 29.952 0 0 1 11.328 23.36v290.56a19.2 19.2 0 1 0 38.4 0v-290.56a69.12 69.12 0 0 0-6.656-29.504 70.272 70.272 0 0 0-18.752-23.68L589.44 39.296c-44.48-43.712-122.816-42.432-164.48-1.28L84.864 312.768a69.888 69.888 0 0 0-26.048 54.4V866.56c0 51.776 39.936 92.224 90.88 92.224h394.56a19.2 19.2 0 1 0 0-38.336z" fill="#999"/><path d="M375.936 468.608c0 71.104 58.56 128.96 130.56 128.96 72.064 0 130.624-57.856 130.624-128.96s-58.56-129.024-130.624-129.024c-72 0-130.56 57.856-130.56 129.024zm222.784 0c0 49.984-41.344 90.624-92.224 90.624-50.816 0-92.16-40.64-92.16-90.624s41.344-90.624 92.16-90.624c50.88 0 92.224 40.64 92.224 90.624zm27.648 379.456a19.456 19.456 0 0 0 16.96 2.368l56.96-19.392a19.328 19.328 0 0 0 12.032-24.384 19.328 19.328 0 0 0-24.384-12.032l-17.28 5.888a120.576 120.576 0 0 1 104.192-60.224 121.6 121.6 0 0 1 110.656 70.528 19.2 19.2 0 1 0 34.944-15.872 160.128 160.128 0 0 0-283.584-13.696l-4.48-10.88a19.2 19.2 0 0 0-35.52 14.784l22.592 54.528c1.024 2.368 2.944 3.904 4.608 5.568.832.832 1.28 2.048 2.304 2.816zm335.168 62.784l-34.368-48.064c-1.408-2.048-3.968-2.432-5.952-3.712-2.048-1.344-3.584-3.264-5.888-3.712-2.624-.576-4.992.704-7.616 1.216-2.112.512-4.288-.128-6.336 1.088l-51.072 31.616a19.2 19.2 0 1 0 20.224 32.64l9.344-5.824a120.192 120.192 0 0 1-105.216 62.656 122.048 122.048 0 0 1-113.728-77.824 19.2 19.2 0 0 0-35.904 13.632 160.64 160.64 0 0 0 149.632 102.592 159.36 159.36 0 0 0 146.688-96.192l8.832 12.288a19.072 19.072 0 0 0 26.816 4.416 19.072 19.072 0 0 0 4.544-26.816z" fill="#999"/></svg>