<svg class="icon" viewBox="0 0 1024 1024" xmlns="http://www.w3.org/2000/svg" width="200" height="200"><defs><style/></defs><path d="M512 51.712c253.824 0 460.288 206.528 460.288 460.288S765.824 972.288 512 972.288 51.712 765.824 51.712 512A461.312 461.312 0 0 1 389.376 68.288 459.52 459.52 0 0 1 512 51.712m0-51.2c-46.272 0-92.16 6.208-136.32 18.432A512.64 512.64 0 0 0 .512 512c0 282.048 229.44 511.488 511.488 511.488S1023.488 793.856 1023.488 512C1023.488 229.952 794.048.512 512 .512z" fill="#FC9B16"/><path d="M493.504 737.728H327.296c-11.712 0-20.544-9.28-20.544-21.632V321.472c0-12.032 8.448-20.48 20.544-20.48h331.456c12.48 0 21.632 8.64 21.632 20.48v153.856a12.8 12.8 0 0 0 25.6 0V321.472a46.208 46.208 0 0 0-47.232-46.144H327.296a45.184 45.184 0 0 0-46.208 46.144V716.16c0 26.496 20.288 47.232 46.208 47.232h166.208a12.8 12.8 0 0 0 0-25.664z" fill="#FC9B16"/><path d="M484.032 523.072a12.8 12.8 0 0 0-12.8-12.8H356.416a12.8 12.8 0 0 0-12.8 12.8c0 7.04 5.76 12.8 12.8 12.8h114.816a12.8 12.8 0 0 0 12.8-12.8zm84.48-92.288a12.8 12.8 0 0 0-12.736-12.8h-199.36c-7.04 0-12.8 5.76-12.8 12.8s5.76 12.8 12.8 12.8h199.36a12.8 12.8 0 0 0 12.736-12.8zM356.416 595.2c-7.04 0-12.8 5.824-12.8 12.736 0 7.04 5.76 12.864 12.8 12.864h67.84c7.04 0 12.8-5.824 12.8-12.864a12.864 12.864 0 0 0-12.8-12.736h-67.84zm276.48-94.848a128.366 128.366 0 0 0-33.984 4.544 128.128 128.128 0 0 0-93.568 123.072c0 70.464 57.28 127.744 127.744 127.744a127.808 127.808 0 0 0 127.68-127.744 128 128 0 0 0-127.872-127.616zm0 229.824a102.208 102.208 0 0 1-27.264-200.704 102.208 102.208 0 0 1 129.408 98.56 102.272 102.272 0 0 1-102.144 102.144z" fill="#FC9B16"/><path d="M676.48 628.096h-34.752v-58.944a12.8 12.8 0 0 0-12.736-12.864 12.864 12.864 0 0 0-12.864 12.864v72a12.8 12.8 0 0 0 12.864 12.672h47.488a12.864 12.864 0 0 0 0-25.728z" fill="#FC9B16"/></svg>