<svg class="icon" viewBox="0 0 1024 1024" xmlns="http://www.w3.org/2000/svg" width="200" height="200"><defs><style/></defs><path d="M512 16.512c-44.8 0-89.28 6.016-132.096 17.856A496.576 496.576 0 0 0 16.512 512c0 273.28 222.272 495.488 495.488 495.488 273.28 0 495.488-222.4 495.488-495.488 0-273.28-222.208-495.488-495.488-495.488zM277.504 735.68h-26.752a17.28 17.28 0 0 1 0-34.624h26.752a17.28 17.28 0 1 1 0 34.624zm0-197.12h-26.752a17.28 17.28 0 1 1 0-34.56h26.752a17.28 17.28 0 0 1 0 34.56zm0-215.68h-26.752a17.28 17.28 0 1 1 0-34.56h26.752a17.28 17.28 0 0 1 0 34.56zm495.744 412.8H331.904a17.28 17.28 0 0 1 0-34.624h441.344a17.28 17.28 0 1 1 0 34.624zm0-197.12H331.904a17.28 17.28 0 1 1 0-34.56h441.344a17.28 17.28 0 0 1 0 34.56zm0-215.68H331.904a17.28 17.28 0 1 1 0-34.56h441.344a17.28 17.28 0 0 1 0 34.56z"/></svg>