<svg class="icon" viewBox="0 0 1024 1024" xmlns="http://www.w3.org/2000/svg" width="200" height="200"><defs><style/></defs><path d="M44.864 764.096a17.536 17.536 0 0 0 5.76 2.432c9.344 2.304 18.368 2.56 24.256 2.56l838.08-.256c7.04 0 14.208.128 21.184 1.088 9.408 1.344 16.96 2.112 22.912 2.112 4.544 0 18.304 0 28.224-9.984 10.752-10.688 11.584-26.432 11.52-46.08l.192-5.888c.32-7.744.768-18.048-4.032-28.736-43.968-262.528-252.288-397.376-427.968-411.584-7.68-.64-21.248-1.152-35.52-1.536v-65.536h53.056a19.2 19.2 0 1 0 0-38.4H438.272a19.2 19.2 0 1 0 0 38.4H491.2v64.832a572.8 572.8 0 0 0-15.296 0C233.536 295.104 75.072 452.608 28.928 715.136c-2.176 10.24-7.232 34.304 15.936 48.96zm21.632-41.152l1.024-5.184c42.112-240.256 188.672-386.624 411.2-411.968 8.64 0 65.344.832 83.2 2.24 161.856 13.12 354.048 138.368 393.6 382.336a19.84 19.84 0 0 0 2.112 6.208c1.28 2.304 1.216 6.08.96 12.032l-.192 7.744c0 11.264-.512 16.512.832 17.28a113.728 113.728 0 0 1-19.904-1.6 193.216 193.216 0 0 0-26.432-1.472l-16.512.128-800.96-.384-20.544.448c-3.712 0-6.848-.192-9.664-.512.192-2.112.832-5.184 1.28-7.296zm911.296 98.368H46.016a19.2 19.2 0 1 0 0 38.4h931.84a19.2 19.2 0 1 0-.064-38.4z" fill="#0596E7"/></svg>