<svg class="icon" viewBox="0 0 1024 1024" xmlns="http://www.w3.org/2000/svg" width="200" height="200"><defs><style/></defs><path d="M991.616 919.296h-59.072v-184.96h34.56a19.2 19.2 0 1 0 0-38.4h-45.632l-92.544-95.232v-63.36l72.192.064a19.2 19.2 0 0 0 0-38.336l-78.592-.064L714.88 401.28v-86.208h96.704a19.2 19.2 0 1 0 0-38.4h-77.376L568.832 125.824c1.472-4.992 3.136-9.92 3.136-15.36 0-30.848-25.088-56-55.936-56s-55.936 25.152-55.936 56c0 3.776 1.408 7.04 2.176 10.624-.192.128-.448.064-.576.192l-156.48 155.392h-74.048a19.2 19.2 0 1 0 0 38.4h96.704v86.08l-109.056 97.152-96.96-.128a19.2 19.2 0 1 0-.064 38.336l79.808.128v70.912L103.168 696H65.344a19.2 19.2 0 1 0 0 38.4h25.984v184.96H32.384a19.2 19.2 0 1 0 0 38.4H991.68c10.624 0 19.2-8.576 19.2-19.2s-8.64-19.264-19.264-19.264zM498.944 806.08v113.28h-61.056V806.08h61.056zm38.4 0h59.136v113.28h-59.136V806.08zm-186.368-38.4a23.104 23.104 0 0 0-23.104 23.104v54.464H288.96V807.04a19.2 19.2 0 1 0-38.4 0v38.208h-41.664V807.04a19.2 19.2 0 1 0-38.4 0v38.208h-40.768V734.4h764.48v110.848h-42.624V807.04a19.2 19.2 0 1 0-38.4 0v38.208h-39.872V807.04a19.2 19.2 0 1 0-38.4 0v38.208h-34.24v-54.464a23.04 23.04 0 0 0-23.04-23.104H350.976zM240 593.344v-55.936h550.592v55.872H240zm-7.872 38.336h573.376L868.032 696H160.576l71.552-64.32zm468.544 251.968h193.472v35.712H700.672v-35.712zM516.032 92.864a17.536 17.536 0 1 1-17.536 17.6c0-9.664 7.872-17.6 17.536-17.6zm-33.152 61.504a55.04 55.04 0 0 0 33.152 12.032 54.208 54.208 0 0 0 29.632-9.728l131.648 120H359.744L482.88 154.368zm60.16 160.768v22.848h-43.264v-22.848h43.264zm-81.664-.064v38.08c0 12.8 10.432 23.168 23.168 23.168h73.664c12.8 0 23.168-10.432 23.168-23.168v-38.08h95.104v79.424H366.272v-79.424h95.104zM350.208 432.704l.768.128h340.736l.704-.128 72.896 66.176-488.832-.512 73.728-65.664zm-220.48 450.944h198.208v35.712H129.728v-35.712zm236.544-77.568h33.28v113.28h-33.28V806.08zm268.544 113.216v-113.28h27.52v113.28h-27.52z" fill="#0596E7"/></svg>