<svg class="icon" viewBox="0 0 1024 1024" xmlns="http://www.w3.org/2000/svg" width="200" height="200"><defs><style/></defs><path d="M824.832 0H199.168A199.36 199.36 0 0 0 0 199.168v625.536A199.424 199.424 0 0 0 199.168 1024h625.6A199.424 199.424 0 0 0 1024 824.768V199.104A199.36 199.36 0 0 0 824.832 0zM985.6 824.768a161.024 161.024 0 0 1-160.832 160.896h-625.6A161.024 161.024 0 0 1 38.4 824.768v-625.6A160.96 160.96 0 0 1 199.168 38.4h625.6A160.896 160.896 0 0 1 985.6 199.104v625.664z" fill="#FC9B16"/><path d="M830.336 307.136L420.352 724.48l-4.928-.576-.256.128L193.92 542.336a19.2 19.2 0 1 0-24.384 29.696l221.312 181.696a43.072 43.072 0 0 0 44.48 6.08l422.336-425.792a19.2 19.2 0 0 0-27.328-26.88z" fill="#FC9B16"/></svg>