<svg class="icon" viewBox="0 0 1024 1024" xmlns="http://www.w3.org/2000/svg" width="200" height="200"><defs><style/></defs><path d="M824.832-.064H199.104A199.488 199.488 0 0 0-.128 199.168v625.728a199.36 199.36 0 0 0 199.232 199.232h625.728A199.296 199.296 0 0 0 1024 824.896V199.104A199.36 199.36 0 0 0 824.832-.064zM985.6 824.896a161.024 161.024 0 0 1-160.832 160.896H199.104A161.024 161.024 0 0 1 38.272 824.896V199.168A160.96 160.96 0 0 1 199.104 38.336h625.728a160.96 160.96 0 0 1 160.832 160.768v625.792z" fill="#999"/></svg>