<svg class="icon" viewBox="0 0 1024 1024" xmlns="http://www.w3.org/2000/svg" width="200" height="200"><defs><style/></defs><path d="M512 .448C230.208.448.896 230.016.896 512.192.896 794.304 230.208 1024 512 1024c281.856 0 511.104-229.504 511.104-511.808C1023.104 230.016 793.856.448 512 .448zm0 985.152c-260.672 0-472.704-212.352-472.704-473.408C39.296 251.2 251.328 38.848 512 38.848S984.768 251.2 984.768 512.192C984.768 773.248 772.672 985.6 512 985.6z" fill="#FC9B16"/><path d="M841.088 322.688a19.2 19.2 0 0 0-27.136.256L475.52 668.032 296.32 520.96A19.2 19.2 0 0 0 272 550.656l187.328 153.792c4.736 3.84 10.752 5.888 17.024 5.888 6.72 0 13.312-2.56 19.392-8.128l345.6-352.32a19.264 19.264 0 0 0-.256-27.2z" fill="#FC9B16"/></svg>