<svg class="icon" viewBox="0 0 1024 1024" xmlns="http://www.w3.org/2000/svg" width="200" height="200"><defs><style/></defs><path d="M957.696 770.048l-197.504-162.88c-28.544-23.68-76.16-21.888-103.872 4.096-2.176 2.112-15.36 15.488-24.576 24.96l-8.96 9.088c-7.616 7.744-23.36 7.808-31.232-.064l-201.472-201.6a22.464 22.464 0 0 1 0-31.68l32.832-32.832c14.528-14.528 22.528-34.048 22.528-54.976 0-19.84-7.616-39.296-20.096-52.416L256.128 67.328c-29.568-35.584-95.168-33.984-123.136 2.816l-3.2 4.224c-41.408 56.064-90.816 139.904-90.816 221.056 0 219.136 469.696 689.6 688.448 689.6h.256l13.312-.384a311.04 311.04 0 0 0 128.256-38.464c30.656-17.152 53.44-31.36 71.424-44.672l4.736-3.456c3.968-2.816 8.896-6.4 11.072-8.128 18.176-15.168 28.608-37.312 28.608-60.736a77.44 77.44 0 0 0-27.392-59.136zm-25.472 90.112c-1.536 1.28-5.824 4.288-9.984 7.296l-4.16 3.008c-16.896 12.48-38.4 25.92-67.584 42.24a273.728 273.728 0 0 1-111.488 33.6l-11.84.32c-194.496-.32-649.792-456.512-649.792-651.2 0-70.72 45.312-146.816 83.136-198.016l3.072-4.032a40.448 40.448 0 0 1 32.32-14.976c12.352 0 23.552 4.928 30.656 13.44l170.048 205.312c6.656 7.04 10.432 16.896 10.432 27.008A39.168 39.168 0 0 1 395.776 352l-32.832 32.832a60.864 60.864 0 0 0 0 85.952L564.352 672.32c22.016 22.272 63.872 22.272 85.888 0l-.128-.128c2.304-2.112 5.184-5.056 9.152-9.088 8.96-9.152 21.632-22.144 23.552-24 13.696-12.736 38.848-13.888 53.056-2.304l197.312 162.752a38.848 38.848 0 0 1 13.632 29.76 40.512 40.512 0 0 1-14.592 30.848z" fill="#FC9B16"/></svg>