<svg class="icon" viewBox="0 0 1024 1024" xmlns="http://www.w3.org/2000/svg" width="200" height="200"><defs><style/></defs><path d="M971.136 122.944l-1.856-5.184a92.672 92.672 0 0 0-33.6-35.776 92.48 92.48 0 0 0-47.36-13.12H146.56a90.56 90.56 0 0 0-77.76 44.032L11.52 311.104a72.96 72.96 0 0 0-2.88 31.424l1.28 7.296c7.808 33.024 36.864 56.064 70.72 56.064 12.48 0 23.744-3.904 34.048-9.472V893.12a62.08 62.08 0 0 0 62.016 62.016h297.28a19.2 19.2 0 1 0 0-38.4H176.768a23.68 23.68 0 0 1-23.68-23.616V395.392c28.224 14.144 66.24 10.496 87.744-12.864 26.688 29.056 80.064 29.056 106.752 0 26.752 29.056 80.128 29.056 106.816 0 26.88 29.184 80.256 29.12 106.944-.128 27.136 29.248 80.128 28.992 106.624.128 26.624 29.056 80 29.056 106.752 0 22.528 24.384 62.976 26.88 91.648 10.304v159.68a19.2 19.2 0 0 0 38.4 0V395.008c11.008 6.72 23.744 10.816 37.376 10.816 34.112 0 65.472-24.064 72.896-56.064l1.024-4.032-44.928-222.784zm-28.992 244.544a34.176 34.176 0 0 1-33.28-26.432l-3.392-14.848h-40.64l-3.328 14.912a34.56 34.56 0 0 1-33.28 26.432 34.368 34.368 0 0 1-33.28-26.368l-6.4-14.848h-30.4l-3.52 14.784a34.304 34.304 0 0 1-66.624.064l-6.272-14.848H651.2l-3.328 14.784c-3.52 15.296-17.472 26.432-33.28 26.432s-29.696-11.136-33.216-26.432l-6.4-14.848h-30.464l-3.456 14.848a34.176 34.176 0 0 1-66.56-.064l-6.336-14.72h-30.4l-3.456 14.72a34.112 34.112 0 0 1-66.56 0l-6.4-14.784h-30.4l-3.456 14.784a34.112 34.112 0 0 1-66.56 0l-6.272-14.784h-30.464l-3.456 14.784a34.24 34.24 0 0 1-66.624 0l-6.272-14.784h-30.464l-3.456 14.784c-3.648 15.552-17.344 26.432-33.28 26.432s-29.632-10.88-33.088-25.344l-1.152-8.832c0-3.584.576-6.976 1.856-11.008l54.784-191.68a51.84 51.84 0 0 1 43.52-23.36h741.696a53.248 53.248 0 0 1 45.888 26.24l42.496 211.072a37.696 37.696 0 0 1-34.496 22.912z" fill="#0596E7"/><path d="M861.44 684.224h-33.344a41.472 41.472 0 0 0-40.32 31.488c-4.032-2.368-9.216-7.744-14.4-20.096l-44.288-99.712c-4.288-10.112-14.464-33.856-42.624-33.856h-22.336a38.144 38.144 0 0 0-28.48 12.288 40.96 40.96 0 0 0-9.984 31.232l8.832 78.656h-73.088a52.544 52.544 0 0 0-37.76 88.832 52.672 52.672 0 0 0 11.072 55.552 52.736 52.736 0 0 0 11.008 55.552 52.544 52.544 0 0 0 48.896 71.616h127.744c10.688 0 39.04 0 62.656-24.256a45.12 45.12 0 0 1 3.776-3.392 41.472 41.472 0 0 0 39.104 27.648h33.344c22.784 0 41.344-18.56 41.344-41.344V725.568a41.152 41.152 0 0 0-41.152-41.344zm3.008 230.272a3.136 3.136 0 0 1-3.008 3.008l-36.416-3.008V903.36a19.2 19.2 0 0 0-19.2-19.2c-18.624 0-34.88 6.976-48.128 20.672-10.752 11.072-23.232 12.608-35.136 12.608H594.816a14.208 14.208 0 0 1-14.208-14.144c0-2.176 1.6-3.968 2.624-5.888h35.392a19.2 19.2 0 1 0 0-38.4h-42.368a13.632 13.632 0 0 1-6.656-11.264c0-2.112 1.472-3.712 2.368-5.504h35.584a19.2 19.2 0 1 0 0-38.4h-41.728a13.824 13.824 0 0 1-7.36-11.776c0-1.536 1.344-2.688 1.792-4.096h36.224a19.2 19.2 0 1 0 0-38.4h-40.192a14.08 14.08 0 0 1-8.96-12.992 14.08 14.08 0 0 1 14.08-14.144h94.528a19.2 19.2 0 0 0 19.072-21.312l-10.816-100.864 23.744.192c.448.256 2.176 1.664 5.952 10.624l44.288 99.648c15.616 37.248 39.296 45.056 56.512 45.056h11.136a19.2 19.2 0 0 0 19.2-19.2l3.136-14.144 36.288 3.008v189.056z" fill="#0596E7"/></svg>