<?xml version="1.0" standalone="no"?><!DOCTYPE svg PUBLIC "-//W3C//DTD SVG 1.1//EN" "http://www.w3.org/Graphics/SVG/1.1/DTD/svg11.dtd"><svg t="1493971831453" class="icon" style="" viewBox="0 0 1024 1024" version="1.1" xmlns="http://www.w3.org/2000/svg" p-id="5559" xmlns:xlink="http://www.w3.org/1999/xlink" width="200" height="200"><defs><style type="text/css"></style></defs><path d="M824.832 0H199.168A199.36 199.36 0 0 0 0 199.168v625.536A199.424 199.424 0 0 0 199.168 1024h625.6A199.424 199.424 0 0 0 1024 824.768V199.104A199.36 199.36 0 0 0 824.832 0zM985.6 824.768a161.024 161.024 0 0 1-160.832 160.896H199.168A161.024 161.024 0 0 1 38.4 824.768V199.168A160.96 160.96 0 0 1 199.168 38.4h625.6A160.896 160.896 0 0 1 985.6 199.104v625.664z" fill="#FC9B16" p-id="5560"></path><path d="M830.336 307.136L420.352 724.48l-4.928-0.576-0.256 0.128L193.92 542.336a19.2 19.2 0 1 0-24.384 29.696l221.312 181.696a43.072 43.072 0 0 0 44.48 6.08l422.336-425.792a19.2 19.2 0 0 0-27.328-26.88z" fill="#FC9B16" p-id="5561"></path></svg>