<?xml version="1.0" encoding="utf-8"?>
<!-- Generator: Adobe Illustrator 16.0.0, SVG Export Plug-In . SVG Version: 6.00 Build 0)  -->
<!DOCTYPE svg PUBLIC "-//W3C//DTD SVG 1.1//EN" "http://www.w3.org/Graphics/SVG/1.1/DTD/svg11.dtd">
<svg version="1.1" id="图层_1" xmlns="http://www.w3.org/2000/svg" xmlns:xlink="http://www.w3.org/1999/xlink" x="0px" y="0px"
	 width="24.723px" height="30px" viewBox="0 0 24.723 30" enable-background="new 0 0 24.723 30" xml:space="preserve">
<g>
	<path fill="#999999" d="M12.365,24.348h-0.005c-0.261-0.002-0.507-0.119-0.672-0.32c-0.208-0.252-5.104-6.219-7.19-9.658
		c-0.962-1.501-1.472-3.241-1.472-5.031c0-2.494,0.973-4.839,2.734-6.603C7.525,0.971,9.871,0,12.365,0
		c2.493,0,4.839,0.971,6.602,2.734c1.764,1.764,2.735,4.108,2.735,6.603c0,1.569-0.397,3.12-1.148,4.487
		c-0.483,1.099-1.894,3.146-4.191,6.09c-1.709,2.188-3.312,4.102-3.326,4.119C12.869,24.232,12.623,24.348,12.365,24.348
		L12.365,24.348z M12.365,1.748c-4.185,0-7.589,3.404-7.589,7.589c0,1.458,0.414,2.875,1.199,4.095
		c0.004,0.008,0.008,0.014,0.012,0.021c1.574,2.598,4.949,6.857,6.386,8.642c2.059-2.504,5.86-7.296,6.591-8.999
		c0.012-0.028,0.023-0.055,0.04-0.081c0.621-1.118,0.949-2.391,0.949-3.677C19.953,5.152,16.549,1.748,12.365,1.748L12.365,1.748z
		 M12.342,13.563c-2.33,0-4.227-1.896-4.227-4.227s1.896-4.228,4.227-4.228s4.227,1.896,4.227,4.228
		C16.568,11.667,14.673,13.563,12.342,13.563L12.342,13.563z M12.342,6.859c-1.365,0-2.477,1.111-2.477,2.478
		s1.11,2.478,2.477,2.478c1.367,0,2.479-1.111,2.479-2.478S13.709,6.859,12.342,6.859L12.342,6.859z"/>
	<path fill="#999999" d="M12.361,30c-3.209,0-6.239-0.632-8.531-1.777C1.359,26.987,0,25.281,0,23.418
		c0-1.777,1.252-3.427,3.521-4.646C3.913,18.563,4.4,18.709,4.609,19.1c0.21,0.392,0.063,0.877-0.328,1.086
		c-1.725,0.929-2.676,2.074-2.676,3.232c0,1.205,1.072,2.434,2.941,3.368c2.074,1.037,4.85,1.608,7.813,1.608
		c2.965,0,5.74-0.571,7.814-1.608c1.869-0.935,2.941-2.163,2.941-3.368c0-1.156-0.947-2.303-2.671-3.229
		c-0.391-0.209-0.536-0.696-0.325-1.086c0.209-0.392,0.695-0.537,1.086-0.328c2.268,1.22,3.516,2.867,3.516,4.643
		c0,1.863-1.359,3.569-3.829,4.805C18.602,29.368,15.57,30,12.361,30L12.361,30z"/>
	<path fill="#999999" d="M10.156,26.958c-2.979,0-5.502-1.052-6.28-2.616c-0.197-0.396-0.036-0.879,0.36-1.076
		s0.88-0.035,1.076,0.36c0.416,0.837,2.256,1.728,4.844,1.728c0.443,0,0.804,0.358,0.804,0.803
		C10.959,26.6,10.6,26.958,10.156,26.958L10.156,26.958z"/>
</g>
</svg>
