<?xml version="1.0" standalone="no"?><!DOCTYPE svg PUBLIC "-//W3C//DTD SVG 1.1//EN" "http://www.w3.org/Graphics/SVG/1.1/DTD/svg11.dtd"><svg t="1494326212623" class="icon" style="" viewBox="0 0 1024 1024" version="1.1" xmlns="http://www.w3.org/2000/svg" p-id="5152" xmlns:xlink="http://www.w3.org/1999/xlink" width="200" height="200"><defs><style type="text/css"></style></defs><path d="M44.864 764.096a17.536 17.536 0 0 0 5.76 2.432c9.344 2.304 18.368 2.56 24.256 2.56l838.08-0.256c7.04 0 14.208 0.128 21.184 1.088 9.408 1.344 16.96 2.112 22.912 2.112 4.544 0 18.304 0 28.224-9.984 10.752-10.688 11.584-26.432 11.52-46.08l0.192-5.888c0.32-7.744 0.768-18.048-4.032-28.736-43.968-262.528-252.288-397.376-427.968-411.584-7.68-0.64-21.248-1.152-35.52-1.536V202.688h53.056a19.2 19.2 0 1 0 0-38.4H438.272a19.2 19.2 0 1 0 0 38.4h52.928V267.52a572.8 572.8 0 0 0-15.296 0c-242.368 27.584-400.832 185.088-446.976 447.616-2.176 10.24-7.232 34.304 15.936 48.96z m21.632-41.152l1.024-5.184c42.112-240.256 188.672-386.624 411.2-411.968 8.64 0 65.344 0.832 83.2 2.24 161.856 13.12 354.048 138.368 393.6 382.336a19.84 19.84 0 0 0 2.112 6.208c1.28 2.304 1.216 6.08 0.96 12.032l-0.192 7.744c0 11.264-0.512 16.512 0.832 17.28a113.728 113.728 0 0 1-19.904-1.6 193.216 193.216 0 0 0-26.432-1.472l-16.512 0.128-800.96-0.384-20.544 0.448c-3.712 0-6.848-0.192-9.664-0.512 0.192-2.112 0.832-5.184 1.28-7.296zM977.792 821.312H46.016a19.2 19.2 0 1 0 0 38.4h931.84a19.2 19.2 0 1 0-0.064-38.4z" fill="#0596E7" p-id="5153"></path></svg>