<?xml version="1.0" standalone="no"?><!DOCTYPE svg PUBLIC "-//W3C//DTD SVG 1.1//EN" "http://www.w3.org/Graphics/SVG/1.1/DTD/svg11.dtd"><svg t="1494555867750" class="icon" style="" viewBox="0 0 1024 1024" version="1.1" xmlns="http://www.w3.org/2000/svg" p-id="3976" xmlns:xlink="http://www.w3.org/1999/xlink" width="200" height="200"><defs><style type="text/css"></style></defs><path d="M512 10.496C235.52 10.496 10.496 235.456 10.496 512c0 276.48 225.024 501.504 501.504 501.504S1013.504 788.48 1013.504 512C1013.504 235.456 788.48 10.496 512 10.496z m0 964.608C256.64 975.104 48.896 767.36 48.896 512 48.896 256.64 256.64 48.896 512 48.896c255.36 0 463.104 207.744 463.104 463.104 0 255.36-207.744 463.104-463.104 463.104z" fill="#ffffff" p-id="3977"></path><path d="M724.096 294.4a19.2 19.2 0 0 0-27.136 0.32L512 484.544 326.976 294.656c-7.36-7.552-19.456-7.808-27.072-0.32s-7.808 19.584-0.256 27.136L485.248 512l-185.6 190.592a19.072 19.072 0 0 0 13.632 32.512 19.008 19.008 0 0 0 13.76-5.76L512 539.584l184.896 189.824c3.84 3.904 8.768 5.76 13.76 5.76a19.2 19.2 0 0 0 13.76-32.512L538.752 512l185.728-190.528a19.008 19.008 0 0 0-0.384-27.072z" fill="#ffffff" p-id="3978"></path></svg>