<?xml version="1.0" standalone="no"?><!DOCTYPE svg PUBLIC "-//W3C//DTD SVG 1.1//EN" "http://www.w3.org/Graphics/SVG/1.1/DTD/svg11.dtd"><svg t="1494311267666" class="icon" style="" viewBox="0 0 1024 1024" version="1.1" xmlns="http://www.w3.org/2000/svg" p-id="4274" xmlns:xlink="http://www.w3.org/1999/xlink" width="200" height="200"><defs><style type="text/css"></style></defs><path d="M512 51.712c253.824 0 460.288 206.528 460.288 460.288S765.824 972.288 512 972.288 51.712 765.824 51.712 512a461.44 461.44 0 0 1 337.536-443.712A461.888 461.888 0 0 1 512 51.712m0-51.2c-46.272 0-92.096 6.208-136.384 18.432A512.64 512.64 0 0 0 0.512 512c0 282.048 229.504 511.488 511.488 511.488 282.048 0 511.488-229.632 511.488-511.488C1023.488 229.952 794.048 0.512 512 0.512z" fill="#FC9B16" p-id="4275"></path><path d="M654.72 509.952a12.8 12.8 0 0 0-12.672-12.8H353.6a12.8 12.8 0 0 0-12.8 12.8c0 7.04 5.76 12.8 12.8 12.8h288.448a12.672 12.672 0 0 0 12.672-12.8zM340.8 403.392c0 7.04 5.76 12.8 12.8 12.8h288.448a12.8 12.8 0 0 0 0-25.6H353.6a12.8 12.8 0 0 0-12.8 12.8zM353.6 595.2c-7.04 0-12.8 5.824-12.8 12.736 0 7.04 5.76 12.864 12.8 12.864h99.712c7.04 0 12.8-5.824 12.8-12.864a12.864 12.864 0 0 0-12.8-12.736H353.6z" fill="#FC9B16" p-id="4276"></path><path d="M473.792 762.176H306.368c-14.72 0-25.792-11.712-25.792-27.072V279.168c0-15.104 10.624-25.664 25.792-25.664h66.176a12.8 12.8 0 0 0 12.8-12.8 12.8 12.8 0 0 0-12.8-12.8H306.368a50.24 50.24 0 0 0-51.392 51.264v456c0 29.568 22.592 52.608 51.392 52.608h167.424a12.8 12.8 0 0 0 0-25.6zM624.448 253.504h64.96c15.296 0 27.008 11.008 27.008 25.664v216c0 7.04 5.76 12.8 12.864 12.8a12.8 12.8 0 0 0 12.672-12.8V279.168a51.328 51.328 0 0 0-52.544-51.264H624.448a12.8 12.8 0 1 0 0 25.6zM427.776 253.504h144.192a12.8 12.8 0 0 0 0-25.6H427.776a12.8 12.8 0 0 0-12.8 12.8c0 7.04 5.76 12.8 12.8 12.8zM642.048 530.496a145.92 145.92 0 0 0-145.536 145.6c0 80.256 65.344 145.536 145.6 145.536s145.6-65.344 145.6-145.536-65.408-145.6-145.664-145.6z m0 265.536a120.192 120.192 0 0 1-120-120c0-53.76 36.032-101.376 87.808-115.712 10.496-2.816 21.248-4.16 32.192-4.16 66.048 0 120 53.76 120 119.872s-53.952 120-120 120z" fill="#FC9B16" p-id="4277"></path><path d="M695.552 635.52h-23.872l27.008-26.112a12.8 12.8 0 0 0 0.384-18.112 12.544 12.544 0 0 0-18.048-0.256l-38.912 37.44-39.04-37.632a12.416 12.416 0 0 0-17.92 0.256 12.736 12.736 0 0 0 0.192 18.176l27.136 26.112h-24a12.8 12.8 0 0 0 0 25.6h40.704v24.128h-30.656a12.8 12.8 0 0 0-12.864 12.736c0 7.104 5.76 12.864 12.864 12.864h30.656v41.152c0 7.104 5.76 12.864 12.864 12.864a12.8 12.8 0 0 0 12.672-12.864v-41.152h30.848c7.104 0 12.864-5.76 12.864-12.864a12.8 12.8 0 0 0-12.864-12.736h-30.848v-24.128h40.832a12.8 12.8 0 0 0 12.8-12.864 12.8 12.8 0 0 0-12.8-12.608z" fill="#FC9B16" p-id="4278"></path></svg>