<?xml version="1.0" standalone="no"?><!DOCTYPE svg PUBLIC "-//W3C//DTD SVG 1.1//EN" "http://www.w3.org/Graphics/SVG/1.1/DTD/svg11.dtd"><svg t="1494326354804" class="icon" style="" viewBox="0 0 1024 1024" version="1.1" xmlns="http://www.w3.org/2000/svg" p-id="5401" xmlns:xlink="http://www.w3.org/1999/xlink" width="200" height="200"><defs><style type="text/css"></style></defs><path d="M594.432 641.088a171.648 171.648 0 0 0 91.328-151.104 172.288 172.288 0 0 0-172.032-172.16 172.352 172.352 0 0 0-172.16 172.16c0 65.6 37.312 122.176 91.456 151.104-108.352 32.384-187.648 126.656-187.648 238.976a17.024 17.024 0 0 0 34.048 0c0-120.256 105.152-217.92 234.368-217.92 129.344 0 234.496 97.664 234.496 217.92a17.024 17.024 0 0 0 33.984 0c-0.128-112.384-79.424-206.656-187.84-238.976z m-218.88-151.168c0-76.16 61.952-138.176 138.176-138.176 76.16 0 138.048 62.016 138.048 138.176s-61.888 138.176-138.048 138.176a138.24 138.24 0 0 1-138.176-138.176z" fill="#0596E7" p-id="5402"></path><path d="M775.616 645.312a143.872 143.872 0 0 0 70.272-123.264 144.64 144.64 0 0 0-144.448-144.512 17.088 17.088 0 0 0 0 34.048 110.656 110.656 0 0 1 0 221.12 16.96 16.96 0 1 0 0 33.92c104.576 0 189.568 79.04 189.568 176.128a17.024 17.024 0 0 0 34.048 0c-0.064-91.328-62.72-168.512-149.44-197.44zM350.208 648.96a17.024 17.024 0 0 0-17.024-16.96c-60.864 0-110.464-49.6-110.464-110.592s49.6-110.592 110.528-110.592a17.024 17.024 0 1 0 0-34.048 144.768 144.768 0 0 0-144.512 144.576c0 52.48 28.416 98.048 70.336 123.328-86.72 28.928-149.44 105.984-149.44 197.312a17.024 17.024 0 0 0 34.048 0c0-97.216 85.056-176.064 189.632-176.064a16.832 16.832 0 0 0 16.896-16.96zM885.888 126.976H136.448c-41.28 0-72.32 30.976-72.32 72.128v106.944a17.024 17.024 0 1 0 33.984 0V199.104c0-22.464 15.744-38.208 38.336-38.208h749.376c22.784 0 40 16.448 40 38.208v106.944a17.088 17.088 0 0 0 34.048 0V199.104c0-40.448-32.512-72.128-73.984-72.128z" fill="#0596E7" p-id="5403"></path></svg>