<?xml version="1.0" standalone="no"?><!DOCTYPE svg PUBLIC "-//W3C//DTD SVG 1.1//EN" "http://www.w3.org/Graphics/SVG/1.1/DTD/svg11.dtd"><svg t="1494416516832" class="icon" style="" viewBox="0 0 1024 1024" version="1.1" xmlns="http://www.w3.org/2000/svg" p-id="3895" xmlns:xlink="http://www.w3.org/1999/xlink" width="200" height="200"><defs><style type="text/css"></style></defs><path d="M864.68096 31.31904h-64c-17.69984 0-38.12864 10.89536-38.12864 28.5952s20.4288 35.4048 38.12864 35.4048h64c38.12864 0 64 25.87136 64 64V896c0 38.12864-25.87136 64-64 64H175.65696c-38.12864 0-80.33792-25.87136-80.33792-64V159.31904c0-38.12864 25.87136-64 64-64h80.33792c17.70496 0 24.50944-17.70496 24.50944-35.4048s-6.8096-28.5952-24.50944-28.5952H159.31904c-89.87136 0-128 55.82848-128 129.36192V889.1904C31.31904 968.17152 78.98112 1024 166.12864 1024h691.74272c87.14752 0 134.8096-46.30016 134.8096-134.8096V160.68096c0-73.53344-44.93824-129.36192-128-129.36192zM239.65696 320c0 17.69984 14.976 32.68096 32.68096 32.68096h480.68096c17.70496 0 32.68096-14.98112 32.68096-32.68096s-14.98112-32.68096-32.68096-32.68096H272.33792c-17.69984 0-32.68096 14.98112-32.68096 32.68096z m512 144.33792H272.33792c-17.70496 0-32.68096 14.98112-32.68096 32.68096 0 17.70496 14.976 32.68096 32.68096 32.68096h480.68096c17.70496 0 32.68096-14.976 32.68096-32.68096-1.36192-19.06176-16.33792-32.68096-34.04288-32.68096z m0 192H272.33792c-17.70496 0-32.68096 14.98112-32.68096 32.68096 0 17.70496 14.976 32.68096 32.68096 32.68096h480.68096c17.70496 0 32.68096-14.976 32.68096-32.68096-1.36192-19.06176-16.33792-32.68096-34.04288-32.68096zM401.69984 111.66208h223.31904c25.87136 0 47.66208-25.87648 47.66208-55.82848C672.68096 25.87136 650.89024 0 623.65696 0H401.69984c-27.23328 0-49.024 25.87136-49.024 55.82848 0.00512 29.95712 21.79072 55.8336 49.024 55.8336z" fill="#727171" p-id="3896"></path></svg>