<?xml version="1.0" standalone="no"?><!DOCTYPE svg PUBLIC "-//W3C//DTD SVG 1.1//EN" "http://www.w3.org/Graphics/SVG/1.1/DTD/svg11.dtd"><svg t="1494326146949" class="icon" style="" viewBox="0 0 1024 1024" version="1.1" xmlns="http://www.w3.org/2000/svg" p-id="5028" xmlns:xlink="http://www.w3.org/1999/xlink" width="200" height="200"><defs><style type="text/css"></style></defs><path d="M991.616 919.296h-59.072v-184.96h34.56a19.2 19.2 0 1 0 0-38.4h-45.632l-92.544-95.232v-63.36l72.192 0.064a19.2 19.2 0 0 0 0-38.336l-78.592-0.064L714.88 401.28V315.072h96.704a19.2 19.2 0 1 0 0-38.4h-77.376L568.832 125.824c1.472-4.992 3.136-9.92 3.136-15.36 0-30.848-25.088-56-55.936-56s-55.936 25.152-55.936 56c0 3.776 1.408 7.04 2.176 10.624-0.192 0.128-0.448 0.064-0.576 0.192L305.216 276.672H231.168a19.2 19.2 0 1 0 0 38.4h96.704v86.08L218.816 498.304l-96.96-0.128a19.2 19.2 0 1 0-0.064 38.336l79.808 0.128v70.912l-98.432 88.448h-37.824a19.2 19.2 0 1 0 0 38.4h25.984v184.96H32.384a19.2 19.2 0 1 0 0 38.4h959.296c10.624 0 19.2-8.576 19.2-19.2s-8.64-19.264-19.264-19.264z m-492.672-113.216v113.28h-61.056v-113.28h61.056z m38.4 0h59.136v113.28h-59.136v-113.28z m-186.368-38.4a23.104 23.104 0 0 0-23.104 23.104v54.464h-38.912v-38.208a19.2 19.2 0 1 0-38.4 0v38.208h-41.664v-38.208a19.2 19.2 0 1 0-38.4 0v38.208h-40.768v-110.848h764.48v110.848h-42.624v-38.208a19.2 19.2 0 1 0-38.4 0v38.208h-39.872v-38.208a19.2 19.2 0 1 0-38.4 0v38.208h-34.24v-54.464a23.04 23.04 0 0 0-23.04-23.104H350.976zM240 593.344v-55.936h550.592v55.872H240z m-7.872 38.336h573.376l62.528 64.32H160.576L232.128 631.68z m468.544 251.968h193.472v35.712h-193.472v-35.712zM516.032 92.864a17.536 17.536 0 1 1-17.536 17.6c0-9.664 7.872-17.6 17.536-17.6z m-33.152 61.504a55.04 55.04 0 0 0 33.152 12.032 54.208 54.208 0 0 0 29.632-9.728l131.648 120H359.744l123.136-122.304z m60.16 160.768v22.848h-43.264v-22.848h43.264z m-81.664-0.064v38.08c0 12.8 10.432 23.168 23.168 23.168h73.664c12.8 0 23.168-10.432 23.168-23.168v-38.08h95.104v79.424H366.272V315.072h95.104zM350.208 432.704l0.768 0.128h340.736l0.704-0.128 72.896 66.176-488.832-0.512 73.728-65.664z m-220.48 450.944h198.208v35.712H129.728v-35.712z m236.544-77.568h33.28v113.28h-33.28v-113.28z m268.544 113.216v-113.28h27.52v113.28h-27.52z" fill="#0596E7" p-id="5029"></path></svg>