<?xml version="1.0" standalone="no"?><!DOCTYPE svg PUBLIC "-//W3C//DTD SVG 1.1//EN" "http://www.w3.org/Graphics/SVG/1.1/DTD/svg11.dtd"><svg t="1493903472452" class="icon" style="" viewBox="0 0 1024 1024" version="1.1" xmlns="http://www.w3.org/2000/svg" p-id="4211" xmlns:xlink="http://www.w3.org/1999/xlink" width="200" height="200"><defs><style type="text/css"></style></defs><path d="M993.28 0L0 993.28v30.72L1024 0z" fill="#E58E00" p-id="4212"></path><path d="M322.3808 380.0064c-4.4288 4.88448-7.31136 7.76704-11.96032 12.42624-15.50336 15.53408-20.37248 19.52768-26.8032 21.97504-6.64576 2.66752-11.30496 1.12128-17.96096-5.52448l-36.83328-36.76672-20.81792 20.85888c17.97632 20.16256 22.63552 26.58304 28.416 39.43424 7.32672 15.73376 9.33376 28.81024 8.02816 50.97984-8.64256-0.65024-11.7504-0.20992-20.16768 2.01728 3.30752-21.50912 1.7408-34.5856-6.92224-50.31936-5.10976-9.5232-7.552-12.84608-22.1952-29.24032l-26.79808 26.84928 75.89376 75.74528 103.20896-103.40352-25.088-25.03168zM279.77216 543.88224l-23.51616-23.4752 103.2192-103.39328 23.51616 23.4752zM188.8768 332.24704l27.96544 27.904-20.59776 20.6336-27.9552-27.904z" fill="#F49A00" p-id="4213"></path><path d="M297.55392 381.80352c4.20864-4.21888 4.20864-4.21888 13.06624-13.53728l-39.05536-38.97856-29.9008 29.95712 33.28512 33.22368c5.32992 5.31456 7.9872 3.98336 22.6048-10.66496zM500.34688 329.0624l-44.38016-44.29824 95.6672-95.85664 44.38528 44.288z" fill="#F49A00" p-id="4214"></path><path d="M0 0v993.28L993.28 0H0z m51.52768 431.25248c23.2704-4.23424 37.01248-5.5808 65.38752-5.16096l1.35168 20.39808c-27.93472-1.74592-42.12736-0.84992-66.05824 4.04992l-0.68096-19.28704z m45.52192 83.09248l-2.23232-19.06176c25.92768-6.01088 39.00928-8.01792 66.49344-9.37984l3.56352 20.39296c-28.81536 0.03072-42.99776 1.8176-67.82464 8.04864z m119.15776 113.6128c0.42496-21.28384-10.92096-58.29632-30.02368-98.62656l19.94752-1.792c11.55072 24.81664 19.328 44.53888 25.7792 66.47808 2.00192 7.31648 3.33312 11.74528 5.56032 22.38464 1.11616 4.20864 1.5616 5.09952 2.8928 10.85952l-24.15616 0.69632z m192.27136-162.01728l-13.09184-13.06624-103.20896 103.40352 13.09184 13.06624-14.6176 14.6432c-6.43584-8.19712-13.9776-16.60928-23.74144-26.35264L164.16256 455.0912c-11.9808-11.96032-16.86528-16.38912-22.85056-21.03808 5.76-4.43904 12.62592-10.88 22.81472-21.08416l19.26656-19.30752-27.9552-27.904-27.01824 27.06944a274.8928 274.8928 0 0 0-20.37248 22.6304l-15.08864-15.06304c7.53152-5.3248 12.62592-9.984 23.04-20.41344l103.20896-103.40864c9.07776-9.09824 14.83776-15.75424 20.59264-23.30112l15.08864 15.06304a276.66944 276.66944 0 0 0-22.81472 20.63872l-30.34112 30.40256 27.9552 27.904 22.81472-22.85568c9.5232-9.53856 16.38912-16.86016 20.15744-21.9648 3.9936 4.87424 9.09312 10.40896 21.74464 23.03488L395.3664 426.26048c11.3152 11.29472 19.08736 18.16576 27.73504 25.02656l-14.62272 14.65344z m31.88736-55.47008c-9.35424-44.7744-34.6624-80.22016-116.096-161.50016-13.53728-13.51168-20.41344-19.93216-27.73504-25.91232a341.56032 341.56032 0 0 0 24.36608-22.19008L382.02368 139.6224c-11.97568-3.09248-20.4032-4.85888-31.70816-6.4l5.30432-18.62656c9.97888 1.54112 17.96096 3.30752 41.9072 9.49248l52.49024-52.59264c11.96032-11.9808 18.3808-19.3024 23.25504-25.9584l15.08864 15.05792c-6.64576 4.88448-13.51168 11.3152-25.69728 23.52128L325.57056 221.47584C424.32 320.48128 449.40288 354.816 462.976 408.67328c-9.31328-0.4352-11.53024-0.43008-22.60992 1.79712z m168.32512-164.65408l-95.67744 95.86176 10.6496 10.62912-15.05792 15.08864c-5.55008-7.30624-12.65152-15.2832-25.29792-27.90912l-35.28192-35.21536c-8.43264-8.41728-13.75744-13.2864-20.18816-18.3808 6.20032-4.88448 11.06944-9.32352 19.48672-17.75616l31.00672-31.06304-57.91232-57.8048c-11.3152-11.29984-15.3088-14.83776-20.85888-18.60608l15.9488-15.97952c3.55328 5.31968 7.10656 9.30304 18.8672 21.04832l10.20416 10.18368 50.49344-50.59072c10.40896-10.42944 16.60928-17.52576 20.37248-23.07584l15.3088 15.27808c-6.20032 4.43904-13.29152 10.65472-22.58944 19.97312l-50.93888 51.03616 34.83648 34.76992 42.74688-42.8288c8.63744-8.6528 13.07136-13.53216 17.94048-19.74272 5.32992 6.64576 10.42944 12.18048 19.30752 21.0432l34.17088 34.10432c12.87168 12.84608 21.07904 20.15232 28.18048 25.46688l-15.06304 15.08864-10.65472-10.61888z" fill="#F49A00" p-id="4215"></path></svg>