<?xml version="1.0" standalone="no"?><!DOCTYPE svg PUBLIC "-//W3C//DTD SVG 1.1//EN" "http://www.w3.org/Graphics/SVG/1.1/DTD/svg11.dtd"><svg t="1493903163837" class="icon" style="" viewBox="0 0 1024 1024" version="1.1" xmlns="http://www.w3.org/2000/svg" p-id="4101" xmlns:xlink="http://www.w3.org/1999/xlink" width="200" height="200"><defs><style type="text/css"></style></defs><path d="M993.28 0L0 993.28v30.72L1024 0z" fill="#318BD8" p-id="4102"></path><path d="M0 0v993.28L993.28 0H0z m371.79904 130.7648l62.00832-62.1312c9.96864-9.98912 16.16896-17.08544 21.4784-24.192l15.5392 15.50336c-7.53664 5.77024-15.28832 12.65152-24.15104 21.5296l-62.0032 62.1312c-8.8576 8.87808-15.94368 16.86528-21.69856 24.40704l-15.52896-15.50336c6.8608-5.09952 14.39744-11.76064 24.35584-21.74464z m-44.7488 34.62656c0.01024 3.10272 0.2304 4.21376 0.90112 8.86272 4.91008 31.47264 4.50048 62.95552-1.00864 97.32096-8.20736-1.54112-13.30688-1.75616-20.8384-0.86528 4.40832-20.39808 5.94944-34.81088 5.7088-52.76672-0.02048-22.1696-2.24768-35.47136-6.92224-47.21664l22.15936-5.33504z m-161.6896 154.4704c1.3312 3.98848 1.78176 4.87936 5.56032 13.5168 3.54816 8.4224 6.44096 15.28832 8.2176 20.16256L237.1584 295.40352c10.63424-10.65472 17.0496-17.9712 21.25824-23.9616l14.86848 14.83776c-7.0912 5.77536-13.73696 11.98592-23.04 21.30944L185.1392 372.82304c6.67648 24.38144 8.6784 36.12672 10.48576 62.73024-7.3216-0.21504-11.7504 0.67584-19.72736 3.7888-0.47104-26.1632-2.47808-41.45664-8.92928-62.50496-5.34016-19.06176-13.12256-36.1216-19.99872-45.20448l18.39104-11.77088zM72.11008 399.98464c26.37824 5.07392 33.25952 6.61504 48.9984 12.58496l-5.95968 19.29216c-18.63168-7.9616-32.37888-11.4944-51.2256-13.91616l8.18688-17.96096z m206.80192 189.99808c-5.31968 5.3248-9.5232 9.09312-17.72032 15.53408-7.3216-6.42048-11.76064-9.51808-16.64-11.73504 7.53664-4.87936 15.27808-10.87488 21.25824-16.86528 7.98208-7.99232 7.0912-11.9808-6.90176-29.92128-16.41984-20.81792-35.95264-42.53184-71.0144-77.52192l-27.904 27.96032c28.85632 32.78336 38.17984 44.30336 49.94048 62.24896 15.32416 23.70048 24.43776 48.7424 28.2368 76.89728-9.7536-1.76128-13.96736-1.98144-21.94432-1.08544-4.46976-36.35712-15.58016-60.28288-44.43136-95.2832-18.432-22.81472-33.7408-39.86944-65.69472-73.088l-3.98336 3.9936c-9.96864 9.984-15.05792 15.53408-19.712 21.96992l-14.86848-14.83776c6.64576-4.88448 13.51168-10.88 22.8096-20.1984l45.39904-45.4912c8.20224-8.21248 13.5168-13.9776 18.83136-21.07904l14.41792 14.39744c-5.98016 4.6592-11.51488 9.76384-20.81792 19.08736l-28.78976 28.84608c4.21888 4.20864 7.32672 7.75168 9.3184 9.74336 4.6592 4.64896 11.10016 11.52 19.52768 20.81792l25.472-25.51808c9.51808-9.54368 12.18048-12.20608 15.7184-16.64 4.88448 5.75488 6.88128 7.75168 19.52768 20.81792 33.73568 34.54976 51.04128 54.0416 67.47136 75.7504 19.31264 25.91744 19.7632 33.89952 2.49344 51.2z m34.64192-163.41504c-22.40512-9.95328-37.48352-19.2512-67.6608-41.8304-3.31264 5.54496-3.31264 5.54496-13.50656 21.51936l98.52928 98.3296c0.44032-1.3312 0.88064-2.21696 0.88064-2.66752 0.22528-0.22016 3.10272-7.98208 8.85248-23.50592 3.97824-11.53024 5.30944-15.0784 9.72288-27.49952l13.09696 13.06624c-5.96992 19.73248-5.96992 19.73248-21.00224 59.65312-1.3312 3.53792-2.65728 7.09632-4.64896 12.64128l-18.62144-5.74976c0.43008-6.65088-0.67584-9.52832-7.55712-17.72544l-81.20832-81.0496c-14.64832-14.6176-14.64832-14.6176-24.41728-22.144l2.88256-2.88256c9.5232-9.54368 25.2416-35.05152 36.07552-58.3424 7.96672-17.30048 11.49952-28.38528 12.38016-38.58432l23.06048 0.41984c-0.67072 1.55648-0.89088 2.22208-1.3312 3.54816-7.9616 23.06048-14.81728 38.36928-24.11008 55.66976 21.95968 17.0496 23.07072 17.71008 46.81216 30.7712 4.40832-18.62656 4.83328-38.13376 1.48992-60.0832l20.61312-1.57184c0.03072 30.1568-1.06496 46.78144-5.02784 69.39648 10.20416 4.42368 23.95136 8.84224 34.816 11.71456 21.72928 5.2992 38.80448 6.39488 65.1776 3.92704 0.2304 8.64768 1.34656 13.74208 4.67968 23.27552-43.89888 1.36192-72.27904-3.92704-109.9776-20.29568z m173.78816-36.992c-5.10976-7.30624-13.76768-16.82944-25.52832-28.56448l-49.71008-49.6128c-9.53856-9.5232-15.74912-16.16896-25.9584-27.24352 2.23744 18.176 2.02752 30.81216-0.39424 50.10432-8.20736-2.87744-14.18752-3.97824-21.28384-3.97312 5.51424-29.04576 5.7088-57.20064 1.01888-88.45312-1.78176-11.97056-4.66944-21.49888-8.448-29.70112l21.49888-6.00064c0.67072 5.98016 1.11616 7.75168 2.88768 16.1792 2.8928 12.19072 4.0192 21.27872 5.14048 34.80064l89.6512 89.47712c11.9808 11.9552 21.2992 20.37248 28.6208 25.46176l-17.49504 17.52576z m73.06752-82.5344c-6.88128-5.53984-11.76064-8.63744-18.85696-11.73504 14.62272-11.10016 24.58624-19.31264 33.88416-28.63616 7.53152-7.54688 8.4224-10.20416 3.97824-14.63296L483.328 156.13952l-50.49344 50.59584c-10.40896 10.42944-18.82112 19.74784-23.24992 25.96352l-15.5392-15.50336c6.21056-4.44416 15.28832-12.65152 25.92256-23.30112l77.73696-77.89056c11.29472-11.3152 18.82624-19.74784 23.02976-25.73824l15.53408 15.50336c-6.65088 4.88448-15.28832 12.65152-25.472 22.85568l-12.63104 12.65152 97.19808 97.00352c14.19776 14.17728 12.88192 23.04-7.05536 43.01824a425.4208 425.4208 0 0 1-27.89888 25.74336z" fill="#3697EA" p-id="4103"></path></svg>