<?xml version="1.0" encoding="utf-8"?>
<!-- Generator: Adobe Illustrator 16.0.0, SVG Export Plug-In . SVG Version: 6.00 Build 0)  -->
<!DOCTYPE svg PUBLIC "-//W3C//DTD SVG 1.1//EN" "http://www.w3.org/Graphics/SVG/1.1/DTD/svg11.dtd">
<svg version="1.1" id="图层_1" xmlns="http://www.w3.org/2000/svg" xmlns:xlink="http://www.w3.org/1999/xlink" x="0px" y="0px"
	 width="235px" height="54px" viewBox="0 0 235 54" enable-background="new 0 0 235 54" xml:space="preserve">
<g>
	<path fill-rule="evenodd" clip-rule="evenodd" fill="#408ECD" d="M118.658,53.57c-32.458,0-64.915-0.033-97.372,0.056
		c-3.034,0.009-4.848-0.717-6.458-3.579c-2.955-5.25-6.542-10.152-9.975-15.125c-3.405-4.933-3.156-9.726-0.13-14.753
		c3.072-5.105,6.211-10.222,8.667-15.63c2.065-4.548,5.738-3.916,9.34-4.114c1.305-0.072,2.619,0.012,3.928,0.012
		c62.62,0.001,125.24,0.023,187.859-0.062c3.26-0.004,5.133,0.921,6.811,3.859c2.989,5.233,6.634,10.09,9.979,15.122
		c3.046,4.583,3.041,9.251,0.279,13.957c-3.342,5.692-6.925,11.26-9.95,17.117c-1.466,2.84-3.36,3.188-6.098,3.182
		C183.245,53.547,150.951,53.57,118.658,53.57z"/>
</g>
</svg>
