<?xml version="1.0" standalone="no"?><!DOCTYPE svg PUBLIC "-//W3C//DTD SVG 1.1//EN" "http://www.w3.org/Graphics/SVG/1.1/DTD/svg11.dtd"><svg t="1493906039686" class="icon" style="" viewBox="0 0 1024 1024" version="1.1" xmlns="http://www.w3.org/2000/svg" p-id="4578" xmlns:xlink="http://www.w3.org/1999/xlink" width="200" height="200"><defs><style type="text/css"></style></defs><path d="M512 1024C229.6832 1024 0 794.3168 0 512S229.6832 0 512 0s512 229.6832 512 512-229.6832 512-512 512zM512 33.041067C247.9104 33.041067 33.041067 247.9104 33.041067 512S247.9104 990.958933 512 990.958933 990.958933 776.0896 990.958933 512 776.0896 33.041067 512 33.041067z" fill="#dbdbdb" p-id="4579"></path><path d="M823.022933 336.213333L439.6032 719.633067a44.9536 44.9536 0 0 1-2.935467 3.447466c-10.9568 10.888533-28.228267 11.298133-38.673066 0.8192l-198.212267-198.212266c-10.4448-10.4448-10.069333-27.784533 0.853333-38.673067 10.888533-10.888533 28.228267-11.298133 38.673067-0.8192l179.780267 179.780267L785.92 299.178667c11.093333-11.093333 28.398933-11.776 38.638933-1.536 10.24 10.205867 9.591467 27.477333-1.536 38.570666z" fill="#dbdbdb" p-id="4580"></path></svg>