<?xml version="1.0" standalone="no"?><!DOCTYPE svg PUBLIC "-//W3C//DTD SVG 1.1//EN" "http://www.w3.org/Graphics/SVG/1.1/DTD/svg11.dtd"><svg t="1494469767912" class="icon" style="" viewBox="0 0 1024 1024" version="1.1" xmlns="http://www.w3.org/2000/svg" p-id="4353" xmlns:xlink="http://www.w3.org/1999/xlink" width="200" height="200"><defs><style type="text/css"></style></defs><path d="M538.944 32.576C322.688 32.576 133.312 179.2 76.8 385.28l-35.84-54.656a19.2 19.2 0 0 0-32.128 21.056l60.8 92.608c1.152 1.792 2.88 2.88 4.48 4.096 0.832 0.704 1.408 1.6 2.432 2.176 2.24 1.28 4.8 1.664 7.36 1.92 0.64 0.064 1.216 0.512 1.856 0.512a18.688 18.688 0 0 0 9.6-2.624l96.704-56.128c9.152-5.312 12.288-17.088 6.912-26.24s-17.024-12.416-26.24-6.912l-57.344 33.28c52.48-188.672 225.088-323.392 423.488-323.392 243.2 0 441.024 197.888 441.024 441.088s-197.824 441.088-441.024 441.088a437.952 437.952 0 0 1-266.432-89.536 19.2 19.2 0 1 0-23.168 30.656 475.776 475.776 0 0 0 289.6 97.344c264.32 0 479.36-215.04 479.36-479.424S803.264 32.576 538.944 32.576z" fill="#999999" p-id="4354"></path><path d="M356.032 444.992a19.2 19.2 0 0 0 19.2 19.2h143.936v113.344h-113.92a19.2 19.2 0 1 0 0 38.4h113.92V761.6a19.2 19.2 0 1 0 38.4 0V615.872h114.048a19.2 19.2 0 1 0 0-38.4H557.504v-113.28h144.064a19.2 19.2 0 0 0 0-38.4H579.52l117.952-113.6a19.2 19.2 0 1 0-26.688-27.648L538.304 412.16 405.888 284.544a19.2 19.2 0 1 0-26.624 27.648l117.888 113.6H375.168a19.2 19.2 0 0 0-19.136 19.2z" fill="#999999" p-id="4355"></path></svg>