<?xml version="1.0" standalone="no"?><!DOCTYPE svg PUBLIC "-//W3C//DTD SVG 1.1//EN" "http://www.w3.org/Graphics/SVG/1.1/DTD/svg11.dtd"><svg t="1494469609327" class="icon" style="" viewBox="0 0 1024 1024" version="1.1" xmlns="http://www.w3.org/2000/svg" p-id="4102" xmlns:xlink="http://www.w3.org/1999/xlink" width="200" height="200"><defs><style type="text/css"></style></defs><path d="M454.4 980.032H104c-29.184 0-51.2-22.976-51.2-53.44V94.912c0-30.016 21.056-51.008 51.2-51.008H802.56c30.464 0 53.376 21.952 53.376 51.008V419.2a19.2 19.2 0 1 0 38.4 0V94.912c0-50.112-40.32-89.344-91.776-89.344H104C52.928 5.568 14.464 44.032 14.464 94.912v831.68c0 51.52 39.296 91.84 89.536 91.84H454.4a19.2 19.2 0 1 0 0-38.4z" fill="#999999" p-id="4103"></path><path d="M426.496 519.936a19.2 19.2 0 0 0-19.2-19.2H165.44a19.2 19.2 0 0 0 0 38.4h241.856a19.2 19.2 0 0 0 19.2-19.2zM604.608 325.376a19.2 19.2 0 0 0-19.2-19.2H165.44a19.2 19.2 0 0 0 0 38.4h420.032a19.2 19.2 0 0 0 19.136-19.2zM165.44 679.488a19.2 19.2 0 0 0 0 38.4h142.848a19.2 19.2 0 0 0 0-38.4H165.44zM748.16 479.68a263.04 263.04 0 0 0-69.824 9.408 262.208 262.208 0 0 0-191.616 252.032 261.696 261.696 0 0 0 261.44 261.44c144.128 0 261.376-117.248 261.376-261.44s-117.248-261.44-261.376-261.44z m0 484.48a223.232 223.232 0 0 1-223.04-223.04 223.552 223.552 0 0 1 223.104-223.04c122.944 0 222.976 100.032 222.976 223.04s-100.096 223.04-223.04 223.04z" fill="#999999" p-id="4104"></path><path d="M840.064 749.184h-81.216v-132.48a19.2 19.2 0 1 0-38.4 0v151.68a19.2 19.2 0 0 0 19.2 19.2h100.352a19.2 19.2 0 0 0 0.064-38.4z" fill="#999999" p-id="4105"></path></svg>