<?xml version="1.0" standalone="no"?><!DOCTYPE svg PUBLIC "-//W3C//DTD SVG 1.1//EN" "http://www.w3.org/Graphics/SVG/1.1/DTD/svg11.dtd"><svg t="1493977928790" class="icon" style="" viewBox="0 0 1024 1024" version="1.1" xmlns="http://www.w3.org/2000/svg" p-id="5796" xmlns:xlink="http://www.w3.org/1999/xlink" width="200" height="200"><defs><style type="text/css"></style></defs><path d="M512 0C229.215086 0 0 229.229714 0 511.985371 0 794.770286 229.215086 1024 512 1024s512-229.229714 512-512.014629C1024 229.229714 794.770286 0 512 0z m308.370286 368.830171L466.080914 730.784914a35.181714 35.181714 0 0 1-54.432914 5.163886L235.666286 557.246171a36.512914 36.512914 0 0 1 0-51.039085 35.181714 35.181714 0 0 1 50.293028 0l150.308572 152.605257 333.809371-341.035886a35.152457 35.152457 0 0 1 50.293029 0 36.527543 36.527543 0 0 1 0 51.053714z" fill="#04BE02" p-id="5797"></path></svg>