<?xml version="1.0" standalone="no"?><!DOCTYPE svg PUBLIC "-//W3C//DTD SVG 1.1//EN" "http://www.w3.org/Graphics/SVG/1.1/DTD/svg11.dtd"><svg t="1494418449746" class="icon" style="" viewBox="0 0 1433 1024" version="1.1" xmlns="http://www.w3.org/2000/svg" p-id="4267" xmlns:xlink="http://www.w3.org/1999/xlink" width="279.8828125" height="200"><defs><style type="text/css"></style></defs><path d="M1277.5424 0H155.97568c-86.016 0-155.97568 69.50912-155.97568 155.0336v713.9328c0 85.52448 69.95968 155.0336 155.97568 155.0336H1277.5424c86.05696 0 156.0576-69.50912 156.0576-155.0336v-713.9328c0-85.48352-70.00064-155.0336-156.0576-155.0336z m100.5568 883.9168c0 42.22976-34.57024 76.5952-77.0048 76.5952H132.38272a76.88192 76.88192 0 0 1-76.92288-76.5952v-743.8336c0-42.1888 34.57024-76.5952 76.92288-76.5952h1168.67072c42.43456 0 77.0048 34.4064 77.0048 76.5952v743.8336z" fill="#666666" p-id="4268"></path><path d="M1201.7664 258.49856h-319.6928c-15.7696 0-28.54912 14.62272-28.54912 32.768s12.82048 32.768 28.54912 32.768h319.6928c15.7696 0 28.54912-14.62272 28.54912-32.768s-12.77952-32.768-28.54912-32.768zM1201.7664 466.37056h-319.6928c-15.7696 0-28.54912 14.66368-28.54912 32.80896s12.82048 32.768 28.54912 32.768h319.6928c15.7696 0 28.54912-14.62272 28.54912-32.768s-12.77952-32.80896-28.54912-32.80896zM1201.31584 666.46016h-268.82048c-15.72864 0-28.42624 14.66368-28.42624 32.768 0 18.10432 12.73856 32.768 28.42624 32.768h268.82048c15.68768 0 28.42624-14.62272 28.42624-32.768 0-18.10432-12.73856-32.768-28.42624-32.768zM763.61728 761.73312a315.96544 315.96544 0 0 0-171.13088-194.1504 203.3664 203.3664 0 0 0 74.26048-156.99968c0-112.59904-92.24192-204.22656-205.57824-204.22656-113.4592 0-205.66016 91.62752-205.66016 204.22656 0 63.03744 28.95872 119.52128 74.30144 156.99968a315.8016 315.8016 0 0 0-171.13088 194.1504 39.23968 39.23968 0 0 0 26.05056 49.19296c21.01248 6.3488 24.45312-12.04224 30.9248-32.768 31.3344-99.98336 141.02528-191.20128 245.51424-191.20128 104.40704 0 214.71232 96.33792 246.00576 196.32128 5.28384 16.83456 1.76128 29.40928 18.59584 29.40928a39.28064 39.28064 0 0 0 37.84704-50.95424z m-302.40768-206.72512c-80.19968 0-145.48992-64.79872-145.48992-144.42496s65.29024-144.42496 145.48992-144.42496 145.408 64.79872 145.408 144.42496-65.20832 144.42496-145.408 144.42496z" fill="#666666" p-id="4269"></path></svg>