<?xml version="1.0" standalone="no"?><!DOCTYPE svg PUBLIC "-//W3C//DTD SVG 1.1//EN" "http://www.w3.org/Graphics/SVG/1.1/DTD/svg11.dtd"><svg t="1493971875230" class="icon" style="" viewBox="0 0 1024 1024" version="1.1" xmlns="http://www.w3.org/2000/svg" p-id="5678" xmlns:xlink="http://www.w3.org/1999/xlink" width="200" height="200"><defs><style type="text/css"></style></defs><path d="M824.832-0.064H199.104A199.488 199.488 0 0 0-0.128 199.168v625.728a199.36 199.36 0 0 0 199.232 199.232h625.728A199.296 199.296 0 0 0 1024 824.896V199.104a199.36 199.36 0 0 0-199.168-199.168z m160.768 824.96a161.024 161.024 0 0 1-160.832 160.896H199.104a161.024 161.024 0 0 1-160.832-160.896V199.168A160.96 160.96 0 0 1 199.104 38.336h625.728a160.96 160.96 0 0 1 160.832 160.768v625.792z" fill="#999999" p-id="5679"></path></svg>