<?xml version="1.0" standalone="no"?><!DOCTYPE svg PUBLIC "-//W3C//DTD SVG 1.1//EN" "http://www.w3.org/Graphics/SVG/1.1/DTD/svg11.dtd"><svg t="1494311164770" class="icon" style="" viewBox="0 0 1024 1024" version="1.1" xmlns="http://www.w3.org/2000/svg" p-id="4147" xmlns:xlink="http://www.w3.org/1999/xlink" width="200" height="200"><defs><style type="text/css"></style></defs><path d="M512 51.712c253.824 0 460.288 206.528 460.288 460.288S765.824 972.288 512 972.288 51.712 765.824 51.712 512a461.312 461.312 0 0 1 337.664-443.712A459.52 459.52 0 0 1 512 51.712m0-51.2c-46.272 0-92.16 6.208-136.32 18.432A512.64 512.64 0 0 0 0.512 512c0 282.048 229.44 511.488 511.488 511.488S1023.488 793.856 1023.488 512C1023.488 229.952 794.048 0.512 512 0.512z" fill="#FC9B16" p-id="4148"></path><path d="M491.264 762.112H307.968c-14.144 0-24.832-11.264-24.832-26.048V301.12a23.68 23.68 0 0 1 24.832-24.768h365.312c15.168 0 26.112 10.432 26.112 24.768v169.6a12.032 12.032 0 1 0 24.064 0v-169.6a48.832 48.832 0 0 0-49.984-48.704H307.968a47.744 47.744 0 0 0-48.768 48.704v434.944c0 28.032 21.44 50.048 48.768 50.048h183.296a12.032 12.032 0 0 0 12.032-12.032 12.16 12.16 0 0 0-12.032-11.968z" fill="#FC9B16" p-id="4149"></path><path d="M478.656 523.328a12.032 12.032 0 0 0-11.968-12.032H340.096a12.032 12.032 0 0 0 0 24.064h126.592a12.096 12.096 0 0 0 11.968-12.032zM571.904 421.632a12.032 12.032 0 0 0-12.032-12.032H340.096a12.032 12.032 0 0 0 0 24h219.776a12.032 12.032 0 0 0 12.032-11.968zM340.096 604.8a12.032 12.032 0 0 0 0 24.064h74.752a12.032 12.032 0 1 0 0-24.064H340.096zM772.096 629.952a12.032 12.032 0 0 0-12.032 11.968v71.104a23.68 23.68 0 0 1-24.832 24.768H569.728c-15.04 0-26.048-10.368-26.048-24.768V641.92a11.968 11.968 0 0 0-24 0v71.104c0 27.392 21.952 48.768 49.92 48.768h165.696a47.68 47.68 0 0 0 48.832-48.768V641.92a11.904 11.904 0 0 0-12.032-11.968z" fill="#FC9B16" p-id="4150"></path><path d="M660.992 507.84l-0.512-0.448c-1.152-1.024-2.624-1.024-4.032-1.472-1.344-0.64-2.752-1.728-4.224-1.664-1.536 0-2.88 1.088-4.288 1.664-1.344 0.512-2.752 0.448-3.968 1.472l-0.512 0.448-75.008 71.04a12.288 12.288 0 0 0-0.32 17.024 12.032 12.032 0 0 0 8.768 3.712 12.352 12.352 0 0 0 8.256-3.264l55.168-52.416v125.312a12.032 12.032 0 1 0 24 0V543.936l54.656 51.84a12.416 12.416 0 0 0 8.256 3.264 12.16 12.16 0 0 0 8.256-20.8l-74.496-70.4z" fill="#FC9B16" p-id="4151"></path></svg>