<?xml version="1.0" standalone="no"?><!DOCTYPE svg PUBLIC "-//W3C//DTD SVG 1.1//EN" "http://www.w3.org/Graphics/SVG/1.1/DTD/svg11.dtd"><svg t="1493883558629" class="icon" style="" viewBox="0 0 1024 1024" version="1.1" xmlns="http://www.w3.org/2000/svg" p-id="3880" xmlns:xlink="http://www.w3.org/1999/xlink" width="200" height="200"><defs><style type="text/css"></style></defs><path d="M512 54.336c252.352 0 457.664 205.312 457.664 457.664 0 252.288-205.312 457.6-457.664 457.6S54.336 764.288 54.336 512a458.688 458.688 0 0 1 335.744-441.152A457.216 457.216 0 0 1 512 54.336m0-51.2c-46.016 0-91.712 6.208-135.616 18.368A510.08 510.08 0 0 0 3.136 512c0 280.64 228.288 508.8 508.864 508.8 280.64 0 508.864-228.288 508.864-508.8C1020.864 231.424 792.64 3.136 512 3.136z" fill="#FC9B16" p-id="3881"></path><path d="M574.528 531.2c0-7.04-5.824-12.8-12.864-12.8h-195.84a12.8 12.8 0 0 0-12.8 12.8c0 7.04 5.76 12.8 12.8 12.8h195.84c7.04 0 12.864-5.76 12.864-12.8zM672.896 422.464c0-7.04-5.824-12.8-12.864-12.8H365.76c-7.04 0-12.8 5.76-12.8 12.8s5.76 12.8 12.8 12.8h294.272c7.04 0 12.864-5.76 12.864-12.8zM365.76 618.368a12.8 12.8 0 0 0 0 25.6h101.76a12.8 12.8 0 0 0 0-25.6h-101.76zM641.856 269.376h67.52c15.616 0 26.56 10.88 26.56 26.496l0.064 48.32c0 7.04 5.76 12.8 12.8 12.8s12.8-5.76 12.8-12.864l-0.128-48.32a50.944 50.944 0 0 0-52.096-52.032h-67.52a12.8 12.8 0 0 0 0 25.6z" fill="#FC9B16" p-id="3882"></path><path d="M748.736 616.128a12.8 12.8 0 0 0-12.8 12.8v131.968c0 16.256-11.2 27.968-26.56 27.968H317.568c-15.168 0-26.56-12.032-26.56-27.968V295.808c0-15.552 10.88-26.432 26.56-26.432h67.456a12.8 12.8 0 0 0 12.8-12.8 12.8 12.8 0 0 0-12.8-12.8H317.568a50.944 50.944 0 0 0-52.16 52.032v465.088c0 30.016 22.912 53.504 52.16 53.504h391.808a52.224 52.224 0 0 0 52.096-53.504V628.928c0-7.04-5.568-12.8-12.736-12.8zM441.408 269.376h147.072a12.8 12.8 0 0 0 0-25.6H441.408a12.8 12.8 0 0 0-12.8 12.8c0 7.04 5.76 12.8 12.8 12.8z" fill="#FC9B16" p-id="3883"></path><path d="M849.728 401.408l-25.344-22.144a36.928 36.928 0 0 0-25.408-8.768h-0.384a35.648 35.648 0 0 0-24.768 12.16L561.6 625.6a60.8 60.8 0 0 0-4.928 7.296 42.048 42.048 0 0 0-3.712 8.896l-14.528 51.968a22.528 22.528 0 0 0 5.76 21.76c4.16 4.032 9.792 6.4 15.68 6.4l64.768-16.896a27.52 27.52 0 0 0 8.64-3.776 27.648 27.648 0 0 0 6.976-5.952l212.928-243.712c6.336-7.168 9.344-16.384 8.704-25.856s-4.864-18.048-12.16-24.32z m-15.872 33.344l-212.864 243.776-56.32 16.384 13.056-46.4a13.184 13.184 0 0 1 1.344-3.2 27.264 27.264 0 0 1 1.984-3.008l212.032-242.752a10.944 10.944 0 0 1 7.872-3.456c3.136 0 5.248 1.344 6.656 2.496l25.344 22.144c1.92 1.728 3.264 4.16 3.392 6.784a9.408 9.408 0 0 1-2.496 7.232z" fill="#FC9B16" p-id="3884"></path></svg>