<?xml version="1.0" standalone="no"?><!DOCTYPE svg PUBLIC "-//W3C//DTD SVG 1.1//EN" "http://www.w3.org/Graphics/SVG/1.1/DTD/svg11.dtd"><svg t="1494326639666" class="icon" style="" viewBox="0 0 1024 1024" version="1.1" xmlns="http://www.w3.org/2000/svg" p-id="6024" xmlns:xlink="http://www.w3.org/1999/xlink" width="200" height="200"><defs><style type="text/css"></style></defs><path d="M521.024 190.336l-10.624-0.192c-104 0-198.592 63.296-240.96 161.344-43.392 100.096-21.056 215.168 56.96 293.184 23.488 23.552 43.776 43.968 48.64 73.92 15.232 93.888 22.912 100.416 117.184 100.416l25.536-0.064 48.384 0.128 24.384-0.128c22.464-0.192 40.704-7.168 52.672-20.224 7.616-8.256 16.384-23.168 14.72-46.848-3.008-46.144 17.024-78.08 52.608-117.504 74.816-82.816 91.136-180.48 47.04-282.432-43.776-101.248-125.568-157.12-236.544-161.6z m161.024 418.304c-32.512 36.032-66.752 79.872-62.464 145.856 0.576 8.128-1.024 14.272-4.672 18.24-4.544 4.928-13.376 7.744-24.768 7.872H517.632l-25.472 0.064c-68.224 0-68.224 0-79.296-68.16-6.848-42.24-33.472-68.992-59.456-95.04a226.176 226.176 0 0 1-48.704-250.816C340.992 282.752 421.696 228.48 510.4 228.48l9.024 0.192c96.576 3.968 164.864 50.496 202.944 138.496 37.632 87.104 23.68 170.624-40.32 241.472zM582.656 834.24H446.4a19.2 19.2 0 1 0 0 38.4h136.192a19.2 19.2 0 0 0 0.064-38.4zM582.656 884.928H446.4a19.2 19.2 0 1 0 0 38.4h136.192a19.2 19.2 0 0 0 0.064-38.4zM582.656 927.104H446.4a19.2 19.2 0 0 0-17.344 27.392c15.552 33.088 49.152 54.464 85.568 54.464 36.48 0 70.016-21.376 85.44-54.592a19.2 19.2 0 0 0-1.28-18.368 18.944 18.944 0 0 0-16.128-8.896zM514.624 112.256a19.2 19.2 0 0 0 19.2-19.2V34.24a19.2 19.2 0 0 0-38.4 0v58.816a19.2 19.2 0 0 0 19.2 19.2zM303.36 144.832a19.2 19.2 0 0 0 35.136-15.616l-23.872-53.696a19.392 19.392 0 0 0-25.344-9.792 19.136 19.136 0 0 0-9.728 25.344l23.808 53.76zM168.192 229.888a19.2 19.2 0 1 0-25.024 29.12l44.672 38.4a19.328 19.328 0 0 0 27.072-2.048 19.2 19.2 0 0 0-2.048-27.072l-44.672-38.4zM163.712 424.576l-58.688-2.944c-10.944-0.064-19.648 7.616-20.16 18.176a19.2 19.2 0 0 0 18.176 20.224l58.688 2.944h1.024a19.2 19.2 0 0 0 0.96-38.4zM703.04 147.072a19.2 19.2 0 0 0 17.536-11.456l23.808-53.76a19.2 19.2 0 1 0-35.136-15.552l-23.808 53.76a19.2 19.2 0 0 0 17.6 27.008zM882.816 222.656a19.2 19.2 0 0 0-27.136-1.984l-44.544 38.464a19.2 19.2 0 0 0 25.152 29.12l44.544-38.464a19.392 19.392 0 0 0 1.984-27.136zM919.04 412.352l-58.752 2.944a19.2 19.2 0 0 0 0.96 38.336h0.96l58.752-2.944a19.2 19.2 0 0 0 18.24-20.096c-0.512-10.56-9.664-18.176-20.16-18.24z" fill="#0596E7" p-id="6025"></path></svg>