<?xml version="1.0" standalone="no"?><!DOCTYPE svg PUBLIC "-//W3C//DTD SVG 1.1//EN" "http://www.w3.org/Graphics/SVG/1.1/DTD/svg11.dtd"><svg t="1493905631869" class="icon" style="" viewBox="0 0 1024 1024" version="1.1" xmlns="http://www.w3.org/2000/svg" p-id="4467" xmlns:xlink="http://www.w3.org/1999/xlink" width="200" height="200"><defs><style type="text/css"></style></defs><path d="M587.648 512.192c-13.76 0.128-26.688 12.736-26.56 25.856 0.128 13.312 12.928 25.216 27.008 25.152 16.96 0 31.36-11.968 31.232-25.6-0.128-13.632-14.976-25.536-31.68-25.408zM502.208 387.648c19.392-0.064 32.256-12.992 32.192-32.384 0-19.328-12.864-32-32.448-32-21.376 0-38.144 13.952-38.272 31.808-0.192 18.24 16.832 32.576 38.528 32.576zM319.168 323.328c-21.056 0.192-38.208 14.656-38.272 32.192 0 17.664 17.728 32.192 39.232 32.128 19.2-0.128 32-13.248 31.872-32.704-0.192-19.392-13.12-31.744-32.832-31.616zM730.88 512.192c-13.76 0.128-26.368 12.48-26.24 25.856 0 13.376 12.48 25.152 26.816 25.152 16.96 0 31.04-11.648 30.784-25.6-0.256-13.888-14.528-25.536-31.36-25.408z" fill="#69C647" p-id="4468"></path><path d="M815.872 14.592H208.064A193.728 193.728 0 0 0 14.528 208.128v607.808a193.728 193.728 0 0 0 193.536 193.536h607.808a193.664 193.664 0 0 0 193.472-193.536V208.064A193.664 193.664 0 0 0 815.872 14.592zM421.312 654.912c-34.176 2.496-67.136-4.032-100.16-10.944a21.44 21.44 0 0 0-15.68 2.176c-27.072 13.824-54.4 27.328-83.52 41.92 7.936-24.192 14.848-46.656 22.656-68.8 2.432-6.912 2.176-10.88-4.48-15.744-35.328-25.408-64.256-56.512-81.664-97.024-30.336-70.336-13.12-155.456 42.752-212.16 57.792-58.688 129.216-83.52 210.176-82.112 71.36 1.344 135.424 24.128 189.504 71.936 30.848 27.456 52.992 60.8 64.448 101.12 2.304 8.384 1.152 9.984-7.872 9.344-106.176-7.936-207.04 58.112-231.296 160.512-7.296 30.592-7.168 60.992 0.896 91.52 1.728 6.144 1.024 7.808-5.76 8.256z m412.672 50.496a272.96 272.96 0 0 1-39.872 36.992c-3.968 2.944-4.8 5.568-3.328 10.368 6.08 18.816 11.456 37.76 17.792 59.072-23.104-12.48-44.096-23.936-65.088-35.52a17.408 17.408 0 0 0-14.656-1.856c-61.12 17.472-121.216 14.784-178.944-12.928-55.616-26.752-95.68-67.968-108.928-129.856-14.208-65.664 7.808-120.832 56.384-165.504 92.8-85.184 253.504-76.8 337.344 17.152 60.992 68.288 60.736 152.768-0.704 222.08z" fill="#69C647" p-id="4469"></path></svg>