<?xml version="1.0" standalone="no"?><!DOCTYPE svg PUBLIC "-//W3C//DTD SVG 1.1//EN" "http://www.w3.org/Graphics/SVG/1.1/DTD/svg11.dtd"><svg t="1494377999344" class="icon" style="" viewBox="0 0 1024 1024" version="1.1" xmlns="http://www.w3.org/2000/svg" p-id="4536" xmlns:xlink="http://www.w3.org/1999/xlink" width="200" height="200"><defs><style type="text/css"></style></defs><path d="M512 0.448C230.208 0.448 0.896 230.016 0.896 512.192 0.896 794.304 230.208 1024 512 1024c281.856 0 511.104-229.504 511.104-511.808C1023.104 230.016 793.856 0.448 512 0.448zM512 985.6C251.328 985.6 39.296 773.248 39.296 512.192 39.296 251.2 251.328 38.848 512 38.848s472.768 212.352 472.768 473.344c0 261.056-212.096 473.408-472.768 473.408z" fill="#FC9B16" p-id="4537"></path><path d="M841.088 322.688a19.2 19.2 0 0 0-27.136 0.256L475.52 668.032 296.32 520.96a19.2 19.2 0 0 0-24.32 29.696l187.328 153.792c4.736 3.84 10.752 5.888 17.024 5.888 6.72 0 13.312-2.56 19.392-8.128l345.6-352.32a19.264 19.264 0 0 0-0.256-27.2z" fill="#FC9B16" p-id="4538"></path></svg>