<?xml version="1.0" standalone="no"?><!DOCTYPE svg PUBLIC "-//W3C//DTD SVG 1.1//EN" "http://www.w3.org/Graphics/SVG/1.1/DTD/svg11.dtd"><svg t="1494326088104" class="icon" style="" viewBox="0 0 1024 1024" version="1.1" xmlns="http://www.w3.org/2000/svg" p-id="4903" xmlns:xlink="http://www.w3.org/1999/xlink" width="200" height="200"><defs><style type="text/css"></style></defs><path d="M831.232 43.392h-84.608a19.2 19.2 0 1 0 0 38.4h84.608c27.52 0 46.656 19.136 46.656 46.464V592H146.048V128.192c0-27.328 19.2-46.464 46.656-46.464h87.488a19.2 19.2 0 1 0 0-38.4H192.704c-48.448 0-84.992 36.48-84.992 84.864v745.856a51.2 51.2 0 0 0 51.52 51.456h42.944c1.216 0 3.008 0.384 4.544 1.856 1.6 1.536 1.92 3.456 1.984 4.544l0.064 13.056c0 9.6 3.776 18.624 10.304 24.96a35.136 35.136 0 0 0 25.28 10.624h29.888a33.792 33.792 0 0 0 33.664-33.728l-1.664-21.376h392.384l17.6-1.344-0.064 22.848a33.6 33.6 0 0 0 33.664 33.664h29.824a35.328 35.328 0 0 0 25.088-10.368 35.392 35.392 0 0 0 10.56-25.152l0.064-13.12 1.856-4.416 4.544-1.984h43.008a51.264 51.264 0 0 0 51.456-51.456V128.192c0.064-48.32-36.48-84.8-84.992-84.8z m42.944 839.872a13.44 13.44 0 0 1-9.344 3.968h-43.008a44.16 44.16 0 0 0-31.552 12.992 44.352 44.352 0 0 0-13.248 31.68l2.688 10.368h-25.152l0.064-18.112a36.608 36.608 0 0 0-10.816-26.176 36.736 36.736 0 0 0-26.112-10.88H306.24a36.992 36.992 0 0 0-36.928 37.12v18.56l-22.272 2.24-0.064-13.248a44.672 44.672 0 0 0-44.928-44.544h-42.88a12.8 12.8 0 0 1-9.344-3.968 12.992 12.992 0 0 1-3.84-9.216V630.4h731.904v243.712a12.8 12.8 0 0 1-3.712 9.152z" fill="#0596E7" p-id="4904"></path><path d="M225.92 171.136a19.2 19.2 0 0 0 19.2 19.2h553.536a19.2 19.2 0 1 0 0-38.4H245.12a19.2 19.2 0 0 0-19.2 19.2zM334.784 81.728h354.432a19.2 19.2 0 1 0 0-38.4H334.784a19.2 19.2 0 1 0 0 38.4zM240.32 673.792a75.52 75.52 0 0 0-75.456 75.456 75.52 75.52 0 1 0 75.456-75.456z m0 112.448a37.12 37.12 0 0 1-37.056-36.992 37.12 37.12 0 1 1 37.056 36.992zM783.744 673.792a75.52 75.52 0 0 0 0 150.848 75.456 75.456 0 0 0 0-150.848z m0 112.448a37.12 37.12 0 0 1 0-74.048 37.12 37.12 0 0 1 0 74.048z" fill="#0596E7" p-id="4905"></path></svg>