<?xml version="1.0" standalone="no"?><!DOCTYPE svg PUBLIC "-//W3C//DTD SVG 1.1//EN" "http://www.w3.org/Graphics/SVG/1.1/DTD/svg11.dtd"><svg t="1493906256118" class="icon" style="" viewBox="0 0 1024 1024" version="1.1" xmlns="http://www.w3.org/2000/svg" p-id="5001" xmlns:xlink="http://www.w3.org/1999/xlink" width="200" height="200"><defs><style type="text/css"></style></defs><path d="M489.4976 815.5008c-76.672 36.5312-164.6976 59.264-260.0064 36.864-95.36-22.5664-162.9952-83.5072-151.3856-196.0064 11.584-112.6784 131.9936-151.4368 230.9376-151.4368 98.9824 0 286.7328 64.1664 286.7328 64.1664s15.7312-35.4304 31.1552-75.7376c15.3728-40.4864 19.5968-72.8704 19.5968-72.8704H246.656v-40.1024h194.3296v-76.7872l-242.24 1.8688v-50.624h242.24v-115.0208h127.232v115.0208H827.776v50.624l-259.5584 1.6896v71.3984l214.2592 1.8304s-3.8656 40.1024-31.0016 112.9728c-27.0336 72.8576-52.6336 110.0928-52.6336 110.0928L1024 710.0544V204.7488C1024 91.6352 932.3776 0 819.2256 0H204.7744C91.6352 0 0 91.6352 0 204.7488v614.5024C0 932.3648 91.6352 1024 204.7744 1024h614.4512c94.272 0 173.376-63.7312 197.2736-150.5024L641.4464 695.6544s-75.2256 83.1488-151.9488 119.8464z" fill="#26A9F9" p-id="5002"></path><path d="M267.4688 566.6688c-119.424 7.7056-148.6208 60.1088-148.6208 108.5312 0 48.2944 29.5424 115.4304 169.7152 115.4304 140.3136 0 259.392-141.3248 259.392-141.3248s-161.2544-90.176-280.4864-82.6368z" fill="#26A9F9" p-id="5003"></path></svg>