<?xml version="1.0" standalone="no"?><!DOCTYPE svg PUBLIC "-//W3C//DTD SVG 1.1//EN" "http://www.w3.org/Graphics/SVG/1.1/DTD/svg11.dtd"><svg t="1494326275750" class="icon" style="" viewBox="0 0 1024 1024" version="1.1" xmlns="http://www.w3.org/2000/svg" p-id="5276" xmlns:xlink="http://www.w3.org/1999/xlink" width="200" height="200"><defs><style type="text/css"></style></defs><path d="M1006.208 485.888L590.656 70.272c-41.344-40.96-114.56-42.56-157.376 0.064L17.792 485.888a19.2 19.2 0 0 0 13.568 32.768h0.128L152.96 517.76l-0.064 394.176c0 19.776 7.68 38.4 21.632 52.288 13.952 14.08 32.512 21.824 52.352 21.824h570.176c19.904 0 38.528-7.744 52.288-21.76 14.016-14.016 21.696-32.576 21.696-52.352l-0.064-394.176 121.472 0.832h0.128c7.744 0 14.72-4.608 17.664-11.776a18.88 18.88 0 0 0-4.032-20.928z m-154.24-6.656a18.304 18.304 0 0 0-13.632 5.568 18.88 18.88 0 0 0-5.696 13.632l0.064 413.504a36.032 36.032 0 0 1-10.496 25.344 35.072 35.072 0 0 1-25.152 10.432H226.88a35.648 35.648 0 0 1-35.648-35.776l0.128-413.504a19.328 19.328 0 0 0-5.632-13.632 19.392 19.392 0 0 0-13.568-5.568h-0.128l-93.952 0.704 382.336-382.4c26.688-26.624 74.88-28.096 103.168-0.064l382.4 382.464-94.016-0.704z" fill="#0596E7" p-id="5277"></path><path d="M460.16 537.6c-37.184 0-67.328 30.208-67.328 67.264v292.672a19.2 19.2 0 1 0 38.4 0V604.864A28.8 28.8 0 0 1 460.16 576h97.728a28.8 28.8 0 0 1 28.8 28.864v295.808a19.2 19.2 0 1 0 38.4 0V604.864c0-37.056-30.144-67.264-67.2-67.264H460.16z" fill="#0596E7" p-id="5278"></path></svg>